<?xml version="1.0" encoding="utf-8"?><svg width="530" height="485" viewBox="0 0 530 485" xmlns="http://www.w3.org/2000/svg" xmlns:xlink="http://www.w3.org/1999/xlink"><svg width="28" height="28" viewBox="-2 -2 28 28" id="app-skype" x="261" y="299" xmlns="http://www.w3.org/2000/svg"><g fill="none" fillRule="evenodd"><path d="M22.987 13.966C24.344 6.2 17.571-.446 9.935.986 4.115-2.573-2.568 4.214 1 10.017c-1.387 7.747 5.384 14.48 13.083 13.01 5.832 3.536 12.493-3.26 8.904-9.06z" fill="#FFF" fillRule="nonzero"/><path d="M21.297 13.663c1.148-6.57-4.583-12.194-11.044-10.982-4.925-3.013-10.58 2.73-7.56 7.64-1.174 6.555 4.555 12.252 11.07 11.008 4.934 2.992 10.57-2.758 7.534-7.666z" fill="#00ADEF" fillRule="nonzero"/><path d="M12.325 18.648c-2.691 0-5.397-1.225-5.383-3.335.004-.636.477-1.22 1.108-1.22 1.584 0 1.57 2.365 4.092 2.365 1.771 0 2.376-.97 2.376-1.645 0-2.442-7.652-.945-7.652-5.536 0-2.486 2.032-4.199 5.228-4.012 3.048.18 4.834 1.526 5.007 2.783.085.822-.459 1.462-1.404 1.462-1.377 0-1.519-1.846-3.892-1.846-1.071 0-1.975.447-1.975 1.417 0 2.026 7.607.85 7.607 5.31-.001 2.571-2.05 4.257-5.112 4.257z" fill="#FFF"/></g></svg><svg width="28" height="28" viewBox="-2 -2 28 28" id="app-telegram" x="289" y="299" xmlns="http://www.w3.org/2000/svg"><defs><linearGradient x1="66.7%" y1="16.7%" x2="41.7%" y2="75%" id="aba"><stop stop-color="#37AEE2" offset="0%"/><stop stop-color="#1E96C8" offset="100%"/></linearGradient><linearGradient x1="66%" y1="43.7%" x2="85.1%" y2="80.2%" id="abb"><stop stop-color="#EFF7FC" offset="0%"/><stop stop-color="#FFF" offset="100%"/></linearGradient></defs><g transform="translate(-.15)" fill="none"><circle fill="#FFF" cx="12.15" cy="12" r="12"/><circle fill="url(#aba)" cx="12.155" cy="12.155" r="10.155"/><path d="M10.293 16.81c-.329 0-.273-.125-.386-.438l-.968-3.184 7.447-4.418" fill="#C8DAEA"/><path d="M10.293 16.81c.254 0 .366-.117.508-.255l1.354-1.316-1.689-1.019" fill="#A9C9DD"/><path d="M10.466 14.22l4.092 3.024c.467.258.804.124.92-.433l1.667-7.85c.17-.684-.261-.994-.708-.791l-9.782 3.77c-.667.268-.663.64-.121.807l2.51.783 5.811-3.666c.275-.167.526-.077.32.106" fill="url(#abb)"/></g></svg><svg width="28" height="29" viewBox="-2 -2 28 29" id="app-viber" x="233" y="299" xmlns="http://www.w3.org/2000/svg"><g fill="none" fillRule="evenodd"><path d="M21.07 2.442c2.063 1.793 3.21 5.77 2.439 12.05-.744 6.093-5.337 6.684-6.149 6.947-.35.112-3.443.887-7.46.548a69.489 69.489 0 01-1.459 1.65c-.778.839-1.255 1.613-2.067 1.361-.672-.207-.635-1.229-.635-1.229l.004-2.522h-.004C-.139 19.593-.053 13.5.015 10.245.079 6.99.71 4.367 2.503 2.574 5.724-.38 12.331.018 12.331.018c5.6.026 8.115 1.853 8.739 2.424z" fill="#FFF"/><path d="M21.751 14.082c.65-5.247-.24-8.83-1.984-10.33-.526-.477-2.797-1.901-7.536-1.924 0 0-5.612-.368-8.337 2.098-1.515 1.496-2.026 3.72-2.082 6.438-.057 2.718-.346 7.909 4.623 9.288-.004 0-.004 0 0 0 0 0-.019 3.853-.023 4.19 0 .238.038.4.173.433.098.026.245-.026.369-.15.793-.8 3.337-3.868 3.337-3.868 3.413.226 6.127-.45 6.42-.545.684-.218 4.409-.541 5.04-5.63z" fill="#665CAC"/><path d="M14.953 10.131a.317.317 0 11-.633.03c-.052-1.082-.555-1.601-1.595-1.657a.317.317 0 01.034-.632c1.368.072 2.126.855 2.194 2.259zm1.624.568a.317.317 0 01-.634-.015c.025-1.079-.29-1.965-.946-2.68-.656-.715-1.569-1.114-2.762-1.199a.317.317 0 01.044-.632c1.348.096 2.413.561 3.185 1.402.77.84 1.14 1.885 1.113 3.124zm1.665.64a.317.317 0 11-.634.005c-.014-1.928-.583-3.426-1.704-4.523-1.126-1.096-2.524-1.65-4.205-1.661a.317.317 0 11.004-.634c1.842.012 3.398.629 4.643 1.842 1.25 1.222 1.88 2.883 1.896 4.971zm-5.436 3.05s.447.038.684-.258l.466-.587c.225-.293.77-.477 1.304-.18.297.169.83.496 1.162.74.353.26 1.078.865 1.078.865.346.29.425.718.192 1.169 0 .003-.004.007-.004.007a4.86 4.86 0 01-.973 1.2l-.008.007c-.334.278-.665.44-.988.477-.038.008-.087.011-.143.008-.143 0-.282-.02-.421-.064l-.011-.015c-.5-.14-1.33-.493-2.718-1.256a16.004 16.004 0 01-2.281-1.507 12.069 12.069 0 01-1.026-.91c-.012-.01-.023-.022-.034-.033l-.034-.034-.034-.034-.034-.034c-.346-.35-.646-.691-.91-1.026a16.221 16.221 0 01-1.507-2.282C5.803 9.256 5.45 8.425 5.311 7.925l-.015-.011a1.246 1.246 0 01-.064-.421.554.554 0 01.008-.143c.037-.323.199-.654.477-.989l.007-.007c.373-.41.771-.733 1.2-.974.003 0 .007-.003.007-.003.451-.233.88-.155 1.169.191.004.004.605.726.864 1.079.245.335.576.865.74 1.161.298.534.114 1.08-.18 1.305l-.586.466c-.297.24-.26.684-.26.684s.873 3.296 4.128 4.127z" fill="#FFF"/></g></svg><svg width="28" height="28" viewBox="-2 -2 28 28" id="app-whatsapp" x="317" y="299" xmlns="http://www.w3.org/2000/svg"><g fill="none" fillRule="evenodd"><path d="M5.888 22.336l-.439-.26-4.541 1.191L2.12 18.84l-.285-.454A11.971 11.971 0 010 12C.003 5.383 5.386 0 12.005 0a11.918 11.918 0 018.484 3.52A11.927 11.927 0 0124 12.008c-.003 6.616-5.386 12-12 12-2.158-.001-4.27-.58-6.112-1.673z" fill="#FFF"/><path d="M6.829 20.9l-.371-.22-3.844 1.008L3.64 17.94l-.241-.384a10.129 10.129 0 01-1.553-5.404C1.848 6.555 6.404 2 12.006 2c2.712 0 5.261 1.058 7.179 2.978a10.092 10.092 0 012.971 7.183c-.002 5.599-4.558 10.154-10.155 10.154-1.826 0-3.613-.49-5.172-1.415z" fill="#25D366"/><path d="M14.797 13.64c-.203.305-.788.992-.966 1.196-.178.204-.356.23-.662.076-.305-.152-1.289-.475-2.454-1.515-.908-.809-1.52-1.809-1.699-2.114-.178-.306-.019-.47.134-.623.138-.137.306-.357.458-.535.153-.178.204-.306.305-.51.102-.203.051-.381-.025-.534-.076-.153-.687-1.655-.941-2.266-.248-.596-.5-.515-.687-.524a12.24 12.24 0 00-.585-.011c-.203 0-.534.076-.814.382-.28.305-1.068 1.044-1.068 2.546 0 1.503 1.093 2.954 1.246 3.158.153.204 2.152 3.287 5.215 4.61.728.314 1.296.501 1.74.642.73.232 1.396.2 1.922.121.587-.088 1.806-.738 2.06-1.451.255-.714.255-1.325.179-1.452-.077-.127-.28-.204-.585-.357-.306-.152-1.806-.89-2.086-.993-.28-.101-.483-.152-.687.153z" fill="#FFF"/></g></svg><svg width="22" height="14" viewBox="-2 -2 22 14" id="arrow-down-gray" x="397.24" y="299" xmlns="http://www.w3.org/2000/svg"><path d="M16.522.016L18 1.395l-9 8.606-9-8.59L1.446 0 9 7.368z" fill="#D3D8DA"/></svg><svg width="18" height="12" viewBox="-2 -2 18 12" id="arrow-down-gray-small" x="444" y="328" xmlns="http://www.w3.org/2000/svg"><path d="M12.85.013L14 1.117 7 8 0 1.13 1.124 0 7 5.766z" fill="#D3D8DA"/></svg><svg width="22" height="14" viewBox="-2 -2 22 14" id="arrow-down-pink" x="419.24" y="299" xmlns="http://www.w3.org/2000/svg"><path d="M16.522.016L18 1.395l-9 8.606-9-8.59L1.446 0 9 7.368z" fill="#E8406C"/></svg><svg width="22" height="14" viewBox="-2 -2 22 14" id="arrow-down-purple" x="441.24" y="299" xmlns="http://www.w3.org/2000/svg"><path d="M16.522.016L18 1.395l-9 8.606-9-8.59L1.446 0 9 7.368z" fill="#931680"/></svg><svg width="22" height="14" viewBox="-2 -2 22 14" id="arrow-down-white" x="463.24" y="299" xmlns="http://www.w3.org/2000/svg"><path d="M16.522.016L18 1.395l-9 8.606-9-8.59L1.446 0 9 7.368z" fill="#FFF"/></svg><svg width="10" height="15" viewBox="-2 -2 10 15" id="arrow-left-gray-small" x="512.1800000000001" y="277.32" xmlns="http://www.w3.org/2000/svg"><path d="M6 .718L5.293 0 0 5.617 5.3 11l.692-.734L1.4 5.6z" fill="#9BA0A3"/></svg><svg width="14" height="22" viewBox="-2 -2 14 22" id="arrow-left-pink" x="226" y="328" xmlns="http://www.w3.org/2000/svg"><path d="M9.986 16.52L8.606 18 0 9l8.59-9 1.412 1.445L2.633 9z" fill="#E8406C"/></svg><svg width="14" height="22" viewBox="-2 -2 14 22" id="arrow-left-purple" x="240" y="328" xmlns="http://www.w3.org/2000/svg"><path d="M9.986 16.52L8.606 18 0 9l8.59-9 1.412 1.445L2.633 9z" fill="#931680"/></svg><svg width="12" height="18" viewBox="-2 -2 12 18" id="arrow-left-white-small" x="517" y="353" xmlns="http://www.w3.org/2000/svg"><path d="M7.987 12.85L6.883 14 0 7l6.87-7L8 1.124 2.234 7z" fill="#FFF"/></svg><svg width="14" height="22" viewBox="-2 -2 14 22" id="arrow-right-gray" x="254" y="328" xmlns="http://www.w3.org/2000/svg"><path d="M.017 16.52L1.396 18l8.606-9-8.59-9L0 1.445 7.369 9z" fill="#C7CACC"/></svg><svg width="10" height="15" viewBox="-2 -2 10 15" id="arrow-right-gray-small" x="455" y="417" xmlns="http://www.w3.org/2000/svg"><path d="M0 .718L.707 0 6 5.617.7 11l-.692-.734L4.6 5.6z" fill="#9BA0A3"/></svg><svg width="14" height="22" viewBox="-2 -2 14 22" id="arrow-right-pink" x="268" y="328" xmlns="http://www.w3.org/2000/svg"><path d="M.017 16.52L1.396 18l8.606-9-8.59-9L0 1.445 7.369 9z" fill="#E8406C"/></svg><svg width="14" height="22" viewBox="-2 -2 14 22" id="arrow-right-purple" x="282" y="328" xmlns="http://www.w3.org/2000/svg"><path d="M.017 16.52L1.396 18l8.606-9-8.59-9L0 1.445 7.369 9z" fill="#931680"/></svg><svg width="22" height="14" viewBox="-2 -2 22 14" id="arrow-up-pink" x="485.24" y="299" xmlns="http://www.w3.org/2000/svg"><path d="M16.522 9.984L18 8.605 9.001 0l-9 8.59L1.446 10 9 2.632z" fill="#E8406C"/></svg><svg width="22" height="14" viewBox="-2 -2 22 14" id="arrow-up-purple" x="507.24" y="299" xmlns="http://www.w3.org/2000/svg"><path d="M16.522 9.984L18 8.605 9.001 0l-9 8.59L1.446 10 9 2.632z" fill="#931680"/></svg><svg width="115" height="29" viewBox="-2 -2 115 29" id="dd-logo" x="118" y="299" xmlns="http://www.w3.org/2000/svg"><g fill="none" fillRule="evenodd"><path d="M24.828 6.154c-2.517 0-4.51 1.846-4.51 5.028 0 3.734 2.459 5.066 4.566 5.066 1.715 0 3.056-.818 4.024-2.55l-2.067-.783c-.503.706-1.08 1.24-1.976 1.24-.935 0-2.057-.325-2.314-2.155h6.432c.335-3.657-1.732-5.846-4.155-5.846zm-2.225 4.02c.28-1.239 1.09-2.003 2.094-2.003 1.1 0 1.828.706 1.977 2.002h-4.07zm16.905 5.89h2.235V6.538h-2.235zm-4.768-5.94C33.714 9.8 32.427 9.667 32.427 9c0-.534.466-.952 1.399-.952.876 0 1.585.438 2.367 1.371l1.453-1.486c-.801-.972-1.806-1.848-3.745-1.848-2.144 0-3.708 1.2-3.708 2.991 0 1.848 1.47 2.496 2.943 2.877 1.51.38 2.443.457 2.443 1.2 0 .743-.877 1.029-1.455 1.029-1.137 0-1.902-.705-2.572-1.715l-1.695 1.2c.876 1.696 2.57 2.515 4.286 2.515 2.162 0 3.707-1.43 3.707-3.181 0-2.21-2.085-2.553-3.11-2.877M16.588 7.227c-.611-.714-1.49-1.14-2.685-1.14-2.815 0-4.937 2.245-4.937 5.047 0 2.801 2.196 5.047 4.937 5.047 1.355 0 2.347-.632 2.98-1.643l.17 1.357h1.77V1.038h-2.235v6.189zm-2.61 6.86c-1.66 0-2.741-1.238-2.741-2.934 0-1.696 1.081-2.973 2.74-2.973 1.66 0 2.741 1.277 2.741 2.973s-1.08 2.935-2.74 2.935zm95.699 0c-.895 0-1.38-.571-1.38-1.657V8.35h1.92V6.372h-1.92V1.038h-2.252v5.334h-1.64v1.979h1.64v4.326c0 2.172.856 3.504 2.774 3.504.615 0 1.398-.076 2.05-.324V14.03c-.559.058-.894.058-1.192.058M99.372 6.086c-2.741 0-4.938 2.246-4.938 5.048 0 2.8 2.197 5.047 4.938 5.047 2.908 0 4.938-2.246 4.938-5.047 0-2.935-2.198-5.048-4.938-5.048m0 8.002c-1.566 0-2.704-1.24-2.704-2.935 0-1.697 1.138-2.973 2.704-2.973 1.566 0 2.703 1.276 2.703 2.973 0 1.696-1.137 2.935-2.703 2.935M39.508 4.107h2.235V1.154h-2.235zm39.88 2.08c-2.518 0-4.51 1.846-4.51 5.028 0 3.735 2.458 5.067 4.565 5.067 1.716 0 3.056-.819 4.024-2.551l-2.066-.782c-.503.705-1.081 1.24-1.977 1.24-.935 0-2.057-.326-2.313-2.156h6.431c.336-3.657-1.732-5.846-4.155-5.846zm-2.225 4.02c.28-1.239 1.09-2.003 2.094-2.003 1.1 0 1.827.706 1.976 2.003h-4.07zm-5.95-2.831c-.612-.713-1.491-1.14-2.685-1.14-2.816 0-4.938 2.246-4.938 5.047 0 2.802 2.197 5.047 4.938 5.047 1.354 0 2.346-.632 2.98-1.643l.17 1.358h1.769V1.187h-2.235v6.189zm-2.61 6.86c-1.66 0-2.742-1.238-2.742-2.934 0-1.696 1.082-2.973 2.741-2.973 1.66 0 2.74 1.277 2.74 2.973s-1.08 2.935-2.74 2.935zm21.13-8.049c-1.286 0-2.183.57-2.757 1.491l-.151-1.205h-1.788V19.71h2.253v-4.4c.555.61 1.346.97 2.443.97 2.703 0 4.08-2.245 4.08-5.046 0-2.802-1.34-5.048-4.08-5.048m-.298 8.001c-1.66 0-2.276-1.276-2.276-2.973 0-1.696.616-2.935 2.276-2.935 1.454 0 2.107 1.24 2.107 2.935 0 1.697-.69 2.973-2.107 2.973m-29.993-8c-1.138 0-2.145.646-2.723 1.56h-.037l-.28-1.275H54.56v9.523h2.235v-5.582c.111-1.238 1.044-2.076 1.976-2.076.933 0 1.418.724 1.418 1.505v6.153h2.234V9.404c0-1.96-1.191-3.217-2.98-3.217M50.77 7.66c-.613-.911-1.568-1.473-2.938-1.473-2.816 0-4.938 2.246-4.938 5.048 0 2.801 2.197 5.047 4.938 5.047 1.296 0 2.26-.58 2.896-1.515-.124 1.893-1.259 3.098-2.859 3.098-.765 0-1.622-.248-2.2-1.106h-2.216c.52 2.039 2.179 3.143 4.49 3.143 3.449 0 4.864-2.819 4.864-4.876V6.473h-1.825l-.212 1.187zm-2.864 6.528c-1.66 0-2.74-1.238-2.74-2.934 0-1.696 1.08-2.973 2.74-2.973 1.66 0 2.741 1.277 2.741 2.973s-1.081 2.934-2.74 2.934zM3.227 0h-.075L.376 5.16v6.74h5.57V5.16L3.226 0zm-.709 3.332h1.267L4.828 5.16H1.494l1.024-1.828zm-1.024 7.426h1.155V6.303H1.494v4.455zm2.272 0h1.062V6.303H3.766v4.455z" fill="#231F20"/><path d="M3.52 11.923c.69 1.162 1.062 2.247 1.062 3.599 0 .59-.019 1.6-.503 2.627l-.056-.019c.038-.19.056-.38.056-.533 0-.952-.335-1.866-.987-2.59h-.037a3.837 3.837 0 00-.987 2.59c0 .153.018.343.055.533l-.055.02c-.485-1.029-.503-2.038-.503-2.628 0-1.352.372-2.437 1.061-3.599h-.018C1.229 13.465 0 15.313 0 18.035c0 2.685 1.1 4.684 3.055 6.588h.037c1.956-1.904 3.055-3.903 3.055-6.588 0-2.723-1.23-4.57-2.608-6.112H3.52z" fill="#EF4136"/></g></svg><svg width="28" height="26" fill="none" viewBox="-2 -2 28 26" id="home" x="345" y="299" xmlns="http://www.w3.org/2000/svg"><path d="M3.5 21.859v-9.5H0l12-12 12 12h-5v9.5H3.5z" fill="#000"/></svg><svg width="20" height="21" viewBox="-2 -2 20 21" id="icon-a11y-pink" x="497" y="353" xmlns="http://www.w3.org/2000/svg"><path d="M7 3.732V5h3v2H7v2h4v.03l1.837 2.996L14.614 11l1 1.732-3.464 2-.002-.003L9.863 11H5V3.732a2 2 0 112 0zm-3 1.61v2.193A4 4 0 109.622 12.7l1.155 1.931A6 6 0 114 5.341z" fill="#e8406c"/></svg><svg width="20" height="21" viewBox="-2 -2 20 21" id="icon-a11y-purple" x="508" y="395" xmlns="http://www.w3.org/2000/svg"><path d="M7 3.732V5h3v2H7v2h4v.03l1.837 2.996L14.614 11l1 1.732-3.464 2-.002-.003L9.863 11H5V3.732a2 2 0 112 0zm-3 1.61v2.193A4 4 0 109.622 12.7l1.155 1.931A6 6 0 114 5.341z" fill="#931680"/></svg><svg width="20" height="21" viewBox="-2 -2 20 21" id="icon-a11y-white" x="376" y="417" xmlns="http://www.w3.org/2000/svg"><path d="M7 3.732V5h3v2H7v2h4v.03l1.837 2.996L14.614 11l1 1.732-3.464 2-.002-.003L9.863 11H5V3.732a2 2 0 112 0zm-3 1.61v2.193A4 4 0 109.622 12.7l1.155 1.931A6 6 0 114 5.341z" fill="#fff"/></svg><svg width="24" height="24" viewBox="-2 -2 24 24" id="icon-add-file-white" x="118" y="328" xmlns="http://www.w3.org/2000/svg"><path d="M17 3h3v2h-3v3h-2V5h-3V3h3V0h2v3zm-6.9-1H3a1 1 0 00-1 1v14a1 1 0 001 1h14a1 1 0 001-1v-6.908h2V17a3 3 0 01-3 3H3a3 3 0 01-3-3V3a3 3 0 013-3h7.1v2z" fill="#FFF" fillRule="evenodd"/></svg><svg width="38" height="50" viewBox="-2 -2 38 50" id="icon-additional-service" x="94" y="395" xmlns="http://www.w3.org/2000/svg"><defs><linearGradient x1="96.565%" y1="48.843%" x2="1.157%" y2="48.843%" id="aza"><stop stop-color="#F8B24D" offset="0%"/><stop stop-color="#E8406C" offset="100%"/></linearGradient></defs><path d="M29.516 0h8.037c1.328 0 2.44 1.029 2.44 2.331V43.54c0 1.346-1.107 2.461-2.45 2.461H8.448A2.464 2.464 0 016 43.539V2.454A2.455 2.455 0 018.448 0H29.516zm-.067 1.97h-21a.483.483 0 00-.474.484v33.084c0 .263.221.484.473.484h29.095a.496.496 0 00.475-.484v-24.77V2.33c0-.176-.195-.356-.464-.356h-8a1 1 0 01-.105-.005zM7.975 41.953v1.586a.49.49 0 00.473.486h29.095a.497.497 0 00.475-.486v-1.587a2.401 2.401 0 01-.475.047H8.448c-.161 0-.32-.016-.473-.046zm0-4.007v1.594c0 .262.221.484.473.484h29.095a.496.496 0 00.475-.484v-1.595c-.154.03-.313.047-.475.047H8.448c-.161 0-.32-.016-.473-.046zm5.06-20.224a.987.987 0 010-1.975h12.837a.987.987 0 010 1.975H13.035zm0 3.95a.987.987 0 010-1.975h12.837a.987.987 0 010 1.976H13.035zm0 4.938a.987.987 0 010-1.975h12.837a.987.987 0 010 1.975H13.035zm0 3.95a.987.987 0 010-1.975h12.837a.987.987 0 010 1.975H13.035zm20.2-14.597a.987.987 0 111.073 1.657l-1.438.931a.987.987 0 01-1.073 0l-1.525-.987a.988.988 0 011.073-1.658l.989.64.9-.583zm0 3.95a.987.987 0 111.073 1.658l-1.438.93a.987.987 0 01-1.073 0l-1.525-.987a.988.988 0 011.073-1.658l.989.64.9-.583zm0 4.937a.987.987 0 111.073 1.658l-1.438.931a.987.987 0 01-1.073 0l-1.525-.987a.988.988 0 011.073-1.658l.989.64.9-.584zm0 3.95a.987.987 0 111.073 1.658l-1.438.931a.987.987 0 01-1.073 0l-1.525-.987a.988.988 0 011.073-1.658l.989.64.9-.584zm-18.47-17.022c-1.743 0-3.187-1.338-3.187-3.026 0-1.69 1.444-3.027 3.187-3.027 1.744 0 3.187 1.338 3.187 3.027 0 1.688-1.443 3.026-3.187 3.026zm0-1.975c.686 0 1.213-.489 1.213-1.051S15.45 7.7 14.765 7.7c-.685 0-1.212.489-1.212 1.052s.527 1.051 1.212 1.051z" transform="translate(-6)" fill="url(#aza)"/></svg><svg width="14" height="15" viewBox="-2 -2 14 15" id="icon-attachment-pink" x="465" y="417" xmlns="http://www.w3.org/2000/svg"><path d="M5.424 9H10v2H0V9h4.576L.757 5.181l1.415-1.414L4 5.596V0h2v5.596l1.828-1.829 1.415 1.414L5.424 9z" fill="#E8406C"/></svg><svg width="14" height="15" viewBox="-2 -2 14 15" id="icon-attachment-purple" x="479" y="417" xmlns="http://www.w3.org/2000/svg"><path d="M5.424 9H10v2H0V9h4.576L.757 5.181l1.415-1.414L4 5.596V0h2v5.596l1.828-1.829 1.415 1.414L5.424 9z" fill="#931680"/></svg><svg width="22" height="22" viewBox="-2 -2 22 22" id="icon-calendar-gray" x="296" y="328" xmlns="http://www.w3.org/2000/svg"><path d="M16 4a2 2 0 00-2-2H4a2 2 0 00-2 2h14zm0 2H2v8a2 2 0 002 2h10a2 2 0 002-2V6zM4 0h10a4 4 0 014 4v10a4 4 0 01-4 4H4a4 4 0 01-4-4V4a4 4 0 014-4zm1 11a1 1 0 110-2 1 1 0 010 2zm4 0a1 1 0 110-2 1 1 0 010 2zm4 0a1 1 0 110-2 1 1 0 010 2zm-8 3a1 1 0 110-2 1 1 0 010 2zm4 0a1 1 0 110-2 1 1 0 010 2zm4 0a1 1 0 110-2 1 1 0 010 2z" fill="#9BA0A3"/></svg><svg width="20" height="16" viewBox="-2 -2 20 16" id="icon-checkbox-mark-gray" x="384" y="328" xmlns="http://www.w3.org/2000/svg"><path d="M13.91 0l2.007 2.164L5.314 12 .08 6.595 2.2 4.542l3.225 3.33z" fill="#C7CACC"/></svg><svg width="20" height="16" viewBox="-2 -2 20 16" id="icon-checkbox-mark-purple" x="404" y="328" xmlns="http://www.w3.org/2000/svg"><path d="M13.91 0l2.007 2.164L5.314 12 .08 6.595 2.2 4.542l3.225 3.33z" fill="#931680"/></svg><svg width="12" height="12" viewBox="-2 -2 12 12" id="icon-close-gray-small" x="462" y="328" xmlns="http://www.w3.org/2000/svg"><path d="M4.727 4L8 .727 7.273 0 4 3.273.727 0 0 .727 3.273 4 0 7.273.727 8 4 4.727 7.273 8 8 7.273 4.727 4z" fill="#7E8390" fillRule="evenodd"/></svg><svg width="12" height="12" viewBox="-2 -2 12 12" id="icon-close-white-small" x="474" y="328" xmlns="http://www.w3.org/2000/svg"><path fill="#fff" fillRule="evenodd" d="M4.727 4L8 .727 7.273 0 4 3.273.727 0 0 .727 3.273 4 0 7.273.727 8 4 4.727 7.273 8 8 7.273 4.727 4z"/></svg><svg width="21" height="21" fill="none" viewBox="-2 -2 21 21" id="icon-doctors-purple" x="396" y="417" xmlns="http://www.w3.org/2000/svg"><path fillRule="evenodd" clip-rule="evenodd" d="M5 0h7v5.152h5v6.696h-5V17H5v-5.152H0V5.152h5V0zm2 2.06v5.152H2v2.576h5v5.151h3V9.788h5V7.212h-5V2.061H7z" fill="#931680"/></svg><svg width="22" height="18" viewBox="-2 -2 22 18" id="icon-email-pink" x="318" y="328" xmlns="http://www.w3.org/2000/svg"><path d="M4 2l5 3.75L14 2H4zm12 1L9 8.25 2 3v9h14V3zM2 0h14a2 2 0 012 2v10a2 2 0 01-2 2H2a2 2 0 01-2-2V2a2 2 0 012-2z" fill="#e8406c"/></svg><svg width="22" height="18" viewBox="-2 -2 22 18" id="icon-email-purple" x="340" y="328" xmlns="http://www.w3.org/2000/svg"><path d="M4 2l5 3.75L14 2H4zm12 1L9 8.25 2 3v9h14V3zM2 0h14a2 2 0 012 2v10a2 2 0 01-2 2H2a2 2 0 01-2-2V2a2 2 0 012-2z" fill="#931680"/></svg><svg width="22" height="18" viewBox="-2 -2 22 18" id="icon-email-white" x="362" y="328" xmlns="http://www.w3.org/2000/svg"><path d="M4 2l5 3.75L14 2H4zm12 1L9 8.25 2 3v9h14V3zM2 0h14a2 2 0 012 2v10a2 2 0 01-2 2H2a2 2 0 01-2-2V2a2 2 0 012-2z" fill="#FFF"/></svg><svg width="19" height="22" viewBox="-2 -2 19 22" id="icon-enroll-gray" x="286" y="353" xmlns="http://www.w3.org/2000/svg"><path d="M3.014 0h8.972A3.007 3.007 0 0115 3v12c0 1.657-1.35 3-3.014 3H3.014A3.007 3.007 0 010 15V3c0-1.657 1.35-3 3.014-3zm-.008 2C2.451 2 2 2.448 2 3v12c0 .552.45 1 1.006 1h8.988c.555 0 1.006-.448 1.006-1V3c0-.552-.45-1-1.006-1H3.006zM4 6V4h7v2H4zm0 6v-2h7v2H4zm0-3V7h5v2H4z" fill="#D3D8DA" fillRule="evenodd"/></svg><svg width="19" height="22" viewBox="-2 -2 19 22" id="icon-enroll-purple" x="305" y="353" xmlns="http://www.w3.org/2000/svg"><path d="M3.014 0h8.972A3.007 3.007 0 0115 3v12c0 1.657-1.35 3-3.014 3H3.014A3.007 3.007 0 010 15V3c0-1.657 1.35-3 3.014-3zm-.008 2C2.451 2 2 2.448 2 3v12c0 .552.45 1 1.006 1h8.988c.555 0 1.006-.448 1.006-1V3c0-.552-.45-1-1.006-1H3.006zM4 6V4h7v2H4zm0 6v-2h7v2H4zm0-3V7h5v2H4z" fill="#931680" fillRule="evenodd"/></svg><svg width="19" height="22" viewBox="-2 -2 19 22" id="icon-enroll-white" x="324" y="353" xmlns="http://www.w3.org/2000/svg"><path d="M3.014 0h8.972A3.007 3.007 0 0115 3v12c0 1.657-1.35 3-3.014 3H3.014A3.007 3.007 0 010 15V3c0-1.657 1.35-3 3.014-3zm-.008 2C2.451 2 2 2.448 2 3v12c0 .552.45 1 1.006 1h8.988c.555 0 1.006-.448 1.006-1V3c0-.552-.45-1-1.006-1H3.006zM4 6V4h7v2H4zm0 6v-2h7v2H4zm0-3V7h5v2H4z" fill="#FFF" fillRule="evenodd"/></svg><svg width="24" height="23" viewBox="-2 -2 24 23" id="icon-feedback-purple" x="142" y="328" xmlns="http://www.w3.org/2000/svg"><path d="M16.828 18.746l-5.76-3.379H4a4 4 0 01-4-4V4a4 4 0 014-4h12a4 4 0 014 4v7.367a4.001 4.001 0 01-3.172 3.914v3.465zm-2-3.492v-1.887H16a2 2 0 002-2V4a2 2 0 00-2-2H4a2 2 0 00-2 2v7.367a2 2 0 002 2h7.612l3.216 1.887zM4 6V4h12v2H4zm0 3V7h10v2H4z" fill="#931680"/></svg><svg width="24" height="23" viewBox="-2 -2 24 23" id="icon-feedback-white" x="166" y="328" xmlns="http://www.w3.org/2000/svg"><path d="M16.828 18.746l-5.76-3.379H4a4 4 0 01-4-4V4a4 4 0 014-4h12a4 4 0 014 4v7.367a4.001 4.001 0 01-3.172 3.914v3.465zm-2-3.492v-1.887H16a2 2 0 002-2V4a2 2 0 00-2-2H4a2 2 0 00-2 2v7.367a2 2 0 002 2h7.612l3.216 1.887zM4 6V4h12v2H4zm0 3V7h10v2H4z" fill="#fff"/></svg><svg width="18" height="20" viewBox="-2 -2 18 20" id="icon-file-white" x="417" y="417" xmlns="http://www.w3.org/2000/svg"><path fill="#fff" fillRule="evenodd" d="M7 2H2v12h10V7H7V2zm2 .095V5h2.823L9 2.095zM9.752 0L14 4.37V16H0V0h9.752z"/></svg><svg width="20" height="18" viewBox="-2 -2 20 18" id="icon-filter" x="435" y="417" xmlns="http://www.w3.org/2000/svg"><path d="M5.268 11a2 2 0 013.464 0H16v2H8.732a2 2 0 01-3.464 0H0v-2h5.268zm5-5a2 2 0 013.464 0H16v2h-2.268a2 2 0 01-3.464 0H0V6h10.268zm-7-5a2 2 0 013.464 0H16v2H6.732a2 2 0 01-3.464 0H0V1h3.268z" fill="#9BA0A3" fillRule="evenodd"/></svg><svg width="22" height="22" viewBox="-2 -2 22 22" id="icon-holidays-pink" x="343" y="353" xmlns="http://www.w3.org/2000/svg"><path d="M2 0h14a2 2 0 012 2v14a2 2 0 01-2 2H2a2 2 0 01-2-2V2a2 2 0 012-2zm.988 5.147V13h2.938c.888 0 1.591-.2 2.108-.602.518-.4.777-.96.777-1.675 0-.505-.11-.91-.33-1.214-.221-.305-.58-.512-1.078-.623v-.054a1.32 1.32 0 00.878-.542c.22-.301.33-.686.33-1.155 0-.691-.25-1.195-.754-1.512-.503-.317-1.311-.476-2.425-.476H2.988zm9.926 1.273c.287 0 .579.052.876.156.297.104.592.226.886.365l.537-1.353c-.77-.369-1.536-.553-2.299-.553-.748 0-1.4.163-1.957.491A3.222 3.222 0 009.676 6.94c-.298.614-.446 1.33-.446 2.145 0 1.297.302 2.291.907 2.984.606.693 1.48 1.04 2.622 1.04.795 0 1.514-.135 2.159-.403v-1.397c-.784.276-1.452.414-2.004.414-1.314 0-1.97-.876-1.97-2.627 0-.841.171-1.497.515-1.968.344-.471.829-.707 1.455-.707zm-8.26 1.837V6.512h.875c.476 0 .824.065 1.044.196.22.13.33.346.33.647 0 .322-.1.553-.303.693-.202.14-.529.21-.98.21h-.967zm0 1.322h1.03c.932 0 1.397.325 1.397.977 0 .362-.11.63-.328.806-.218.175-.556.263-1.015.263H4.653V9.579z" fill="#e8406c" fillRule="evenodd"/></svg><svg width="22" height="22" viewBox="-2 -2 22 22" id="icon-holidays-purple" x="365" y="353" xmlns="http://www.w3.org/2000/svg"><path d="M2 0h14a2 2 0 012 2v14a2 2 0 01-2 2H2a2 2 0 01-2-2V2a2 2 0 012-2zm.988 5.147V13h2.938c.888 0 1.591-.2 2.108-.602.518-.4.777-.96.777-1.675 0-.505-.11-.91-.33-1.214-.221-.305-.58-.512-1.078-.623v-.054a1.32 1.32 0 00.878-.542c.22-.301.33-.686.33-1.155 0-.691-.25-1.195-.754-1.512-.503-.317-1.311-.476-2.425-.476H2.988zm9.926 1.273c.287 0 .579.052.876.156.297.104.592.226.886.365l.537-1.353c-.77-.369-1.536-.553-2.299-.553-.748 0-1.4.163-1.957.491A3.222 3.222 0 009.676 6.94c-.298.614-.446 1.33-.446 2.145 0 1.297.302 2.291.907 2.984.606.693 1.48 1.04 2.622 1.04.795 0 1.514-.135 2.159-.403v-1.397c-.784.276-1.452.414-2.004.414-1.314 0-1.97-.876-1.97-2.627 0-.841.171-1.497.515-1.968.344-.471.829-.707 1.455-.707zm-8.26 1.837V6.512h.875c.476 0 .824.065 1.044.196.22.13.33.346.33.647 0 .322-.1.553-.303.693-.202.14-.529.21-.98.21h-.967zm0 1.322h1.03c.932 0 1.397.325 1.397.977 0 .362-.11.63-.328.806-.218.175-.556.263-1.015.263H4.653V9.579z" fill="#931680" fillRule="evenodd"/></svg><svg width="22" height="22" viewBox="-2 -2 22 22" id="icon-holidays-white" x="387" y="353" xmlns="http://www.w3.org/2000/svg"><path d="M2 0h14a2 2 0 012 2v14a2 2 0 01-2 2H2a2 2 0 01-2-2V2a2 2 0 012-2zm.988 5.147V13h2.938c.888 0 1.591-.2 2.108-.602.518-.4.777-.96.777-1.675 0-.505-.11-.91-.33-1.214-.221-.305-.58-.512-1.078-.623v-.054a1.32 1.32 0 00.878-.542c.22-.301.33-.686.33-1.155 0-.691-.25-1.195-.754-1.512-.503-.317-1.311-.476-2.425-.476H2.988zm9.926 1.273c.287 0 .579.052.876.156.297.104.592.226.886.365l.537-1.353c-.77-.369-1.536-.553-2.299-.553-.748 0-1.4.163-1.957.491A3.222 3.222 0 009.676 6.94c-.298.614-.446 1.33-.446 2.145 0 1.297.302 2.291.907 2.984.606.693 1.48 1.04 2.622 1.04.795 0 1.514-.135 2.159-.403v-1.397c-.784.276-1.452.414-2.004.414-1.314 0-1.97-.876-1.97-2.627 0-.841.171-1.497.515-1.968.344-.471.829-.707 1.455-.707zm-8.26 1.837V6.512h.875c.476 0 .824.065 1.044.196.22.13.33.346.33.647 0 .322-.1.553-.303.693-.202.14-.529.21-.98.21h-.967zm0 1.322h1.03c.932 0 1.397.325 1.397.977 0 .362-.11.63-.328.806-.218.175-.556.263-1.015.263H4.653V9.579z" fill="#fff" fillRule="evenodd"/></svg><svg width="20" height="20" viewBox="-2 -2 20 20" id="icon-info-gray" x="48" y="451" xmlns="http://www.w3.org/2000/svg"><path d="M8 16A8 8 0 118 0a8 8 0 010 16zm.852-13.5a1.52 1.52 0 00-.761.19c-.225.127-.407.31-.546.55-.139.238-.208.48-.208.724a1.186 1.186 0 00.64 1.068c.207.112.416.168.626.168.224 0 .456-.07.695-.208.239-.14.423-.323.552-.553.13-.23.194-.468.194-.717 0-.337-.105-.624-.314-.863-.21-.24-.503-.359-.878-.359zm.029 3.256c-.903.303-1.92.518-3.052.644L5.5 7.805h1.215l-.74 2.84a7.044 7.044 0 00-.153.768 3.37 3.37 0 00-.051.454c0 .244.083.495.249.754.165.258.385.454.658.589.273.134.608.2 1.003.2.892 0 1.739-.394 2.539-1.185l-.834-.973c-.38.356-.698.534-.952.534a.318.318 0 01-.223-.077.26.26 0 01-.084-.2c0-.074.046-.289.14-.645l1.309-5.108h-.695z" fill="#D3D8DA" fillRule="evenodd"/></svg><svg width="20" height="20" viewBox="-2 -2 20 20" id="icon-info-purple" x="68" y="451" xmlns="http://www.w3.org/2000/svg"><path d="M8 16A8 8 0 118 0a8 8 0 010 16zm.852-13.5a1.52 1.52 0 00-.761.19c-.225.127-.407.31-.546.55-.139.238-.208.48-.208.724a1.186 1.186 0 00.64 1.068c.207.112.416.168.626.168.224 0 .456-.07.695-.208.239-.14.423-.323.552-.553.13-.23.194-.468.194-.717 0-.337-.105-.624-.314-.863-.21-.24-.503-.359-.878-.359zm.029 3.256c-.903.303-1.92.518-3.052.644L5.5 7.805h1.215l-.74 2.84a7.044 7.044 0 00-.153.768 3.37 3.37 0 00-.051.454c0 .244.083.495.249.754.165.258.385.454.658.589.273.134.608.2 1.003.2.892 0 1.739-.394 2.539-1.185l-.834-.973c-.38.356-.698.534-.952.534a.318.318 0 01-.223-.077.26.26 0 01-.084-.2c0-.074.046-.289.14-.645l1.309-5.108h-.695z" fill="#931680" fillRule="evenodd"/></svg><svg width="20" height="20" viewBox="-2 -2 20 20" id="icon-info-white" x="88" y="451" xmlns="http://www.w3.org/2000/svg"><path d="M8 16A8 8 0 118 0a8 8 0 010 16zm.852-13.5a1.52 1.52 0 00-.761.19c-.225.127-.407.31-.546.55-.139.238-.208.48-.208.724a1.186 1.186 0 00.64 1.068c.207.112.416.168.626.168.224 0 .456-.07.695-.208.239-.14.423-.323.552-.553.13-.23.194-.468.194-.717 0-.337-.105-.624-.314-.863-.21-.24-.503-.359-.878-.359zm.029 3.256c-.903.303-1.92.518-3.052.644L5.5 7.805h1.215l-.74 2.84a7.044 7.044 0 00-.153.768 3.37 3.37 0 00-.051.454c0 .244.083.495.249.754.165.258.385.454.658.589.273.134.608.2 1.003.2.892 0 1.739-.394 2.539-1.185l-.834-.973c-.38.356-.698.534-.952.534a.318.318 0 01-.223-.077.26.26 0 01-.084-.2c0-.074.046-.289.14-.645l1.309-5.108h-.695z" fill="#fff" fillRule="evenodd"/></svg><svg id="icon-like-purple" data-name="Слой 1" viewBox="-2 -2 24.24 21.87" width="24.24" height="21.87" x="373" y="299" xmlns="http://www.w3.org/2000/svg"><defs><style>.bycls-1{fill:#931680}</style></defs><path class="bycls-1" d="M14.87 2c2 0 3.37 1.61 3.37 3.83 0 2.56-2.12 4.48-6.54 8.25l-1.58 1.35-1.57-1.35C4.13 10.31 2 8.39 2 5.83 2 3.61 3.42 2 5.38 2a2.79 2.79 0 011.77.62A4.92 4.92 0 018.37 4.1a2 2 0 001.75 1 2 2 0 001.76-1 4.63 4.63 0 011.22-1.48A2.75 2.75 0 0114.87 2m0-2a4.85 4.85 0 00-3 1 6.8 6.8 0 00-1.75 2.11A6.8 6.8 0 008.37 1a4.82 4.82 0 00-3-1C2.31 0 0 2.51 0 5.83c0 3.59 2.88 6.05 7.25 9.77.75.63 1.58 1.4 2.45 2.11a.63.63 0 00.84 0c.87-.76 1.71-1.48 2.45-2.11 4.37-3.72 7.25-6.18 7.25-9.77 0-3.32-2.31-5.83-5.37-5.83z"/></svg><svg width="20" height="16" viewBox="-2 -2 20 16" id="icon-list-purple" x="424" y="328" xmlns="http://www.w3.org/2000/svg"><path d="M4 0h12v2H4V0zM0 0h2v2H0V0zm0 5h2v2H0V5zm0 5h2v2H0v-2zm4-5h12v2H4V5zm0 5h12v2H4v-2z" fill="#931680" fillRule="evenodd"/></svg><svg width="26" height="21" viewBox="-2 -2 26 21" id="icon-menu-pink" x="362.18" y="277.32" xmlns="http://www.w3.org/2000/svg"><path d="M0 0h22v3H0V0zm0 7h22v3H0V7zm0 7h22v3H0v-3z" fill="#e8406c" fillRule="evenodd"/></svg><svg width="26" height="21" viewBox="-2 -2 26 21" id="icon-menu-purple" x="388.18" y="277.32" xmlns="http://www.w3.org/2000/svg"><path d="M0 0h22v3H0V0zm0 7h22v3H0V7zm0 7h22v3H0v-3z" fill="#931680" fillRule="evenodd"/></svg><svg width="26" height="21" viewBox="-2 -2 26 21" id="icon-menu-white" x="414.18" y="277.32" xmlns="http://www.w3.org/2000/svg"><path d="M0 0h22v3H0V0zm0 7h22v3H0V7zm0 7h22v3H0v-3z" fill="#fff" fillRule="evenodd"/></svg><svg width="24" height="24" viewBox="-2 -2 24 24" id="icon-metro-purple" x="190" y="353" xmlns="http://www.w3.org/2000/svg"><path d="M10 20C4.477 20 0 15.523 0 10S4.477 0 10 0s10 4.477 10 10-4.477 10-10 10zm0-2a8 8 0 100-16 8 8 0 000 16zm-2.826-4.624l-.148.125H5.432L6.78 5.695l.147-.124H8.35l.142.103 1.622 4.895 1.646-4.896.143-.102h1.4l.148.125 1.316 7.805h-1.578l-.148-.125-.72-4.232-1.433 4.254-.142.103H9.464l-.143-.103-1.414-4.253-.733 4.231z" fill="#931680" fillRule="evenodd"/></svg><svg width="19" height="19" viewBox="-2 -2 19 19" id="icon-no" x="124" y="451" xmlns="http://www.w3.org/2000/svg"><path d="M10.357 7.5L15 12.143 12.143 15 7.5 10.357 2.857 15 0 12.143 4.643 7.5 0 2.857 2.857 0 7.5 4.643 12.143 0 15 2.857z" fill="#131413" fillRule="evenodd" opacity=".2"/></svg><svg id="icon-notebook-purple" data-name="Слой 1" viewBox="-2 -2 28.18 21.45" width="28.18" height="21.45" x="334" y="277.32" xmlns="http://www.w3.org/2000/svg"><defs><style>.cfcls-1{fill:#931680}</style></defs><path class="cfcls-1" d="M23.18 17.45H1a1 1 0 010-2h22.18a1 1 0 010 2zM19.05 2a1 1 0 011 1v9.63H4.13V3a1 1 0 011-1h13.92m0-2H5.13a3 3 0 00-3 3v11.63h19.92V3a3 3 0 00-3-3z"/><path class="cfcls-1" d="M12 10a4.48 4.48 0 01-4-1.63.75.75 0 011.1-1A3 3 0 0012 8.5a3 3 0 002.9-1.16.75.75 0 111.09 1A4.46 4.46 0 0112 10zM10.43 6.56a1 1 0 01-.7-.29 1 1 0 01-.3-.71 1 1 0 01.3-.7 1 1 0 011.41 0 1 1 0 01.29.7 1 1 0 01-.07.39 1 1 0 01-.22.32 1 1 0 01-.71.29zM13.75 6.56a1 1 0 01-.7-.29 1 1 0 01-.3-.71 1 1 0 01.3-.7 1 1 0 011.41 0 1 1 0 01.29.7 1 1 0 01-1 1z"/></svg><svg width="22" height="22" viewBox="-2 -2 22 22" id="icon-parking-pink" x="409" y="353" xmlns="http://www.w3.org/2000/svg"><path d="M2 0h14a2 2 0 012 2v14a2 2 0 01-2 2H2a2 2 0 01-2-2V2a2 2 0 012-2zm11.29 6.743c0-1.242-.379-2.177-1.137-2.803-.758-.627-1.864-.94-3.32-.94H5v12h2.544v-4.268h1.092c1.488 0 2.636-.342 3.443-1.026.807-.684 1.211-1.672 1.211-2.963zM7.544 8.647V5.085h1.158c.695 0 1.205.142 1.53.427.326.284.489.725.489 1.321 0 .591-.194 1.041-.583 1.35-.388.31-.974.464-1.756.464h-.838z" fill="#e8406c" fillRule="evenodd"/></svg><svg width="22" height="22" viewBox="-2 -2 22 22" id="icon-parking-purple" x="431" y="353" xmlns="http://www.w3.org/2000/svg"><path d="M2 0h14a2 2 0 012 2v14a2 2 0 01-2 2H2a2 2 0 01-2-2V2a2 2 0 012-2zm11.29 6.743c0-1.242-.379-2.177-1.137-2.803-.758-.627-1.864-.94-3.32-.94H5v12h2.544v-4.268h1.092c1.488 0 2.636-.342 3.443-1.026.807-.684 1.211-1.672 1.211-2.963zM7.544 8.647V5.085h1.158c.695 0 1.205.142 1.53.427.326.284.489.725.489 1.321 0 .591-.194 1.041-.583 1.35-.388.31-.974.464-1.756.464h-.838z" fill="#931680" fillRule="evenodd"/></svg><svg width="22" height="22" viewBox="-2 -2 22 22" id="icon-parking-white" x="453" y="353" xmlns="http://www.w3.org/2000/svg"><path d="M2 0h14a2 2 0 012 2v14a2 2 0 01-2 2H2a2 2 0 01-2-2V2a2 2 0 012-2zm11.29 6.743c0-1.242-.379-2.177-1.137-2.803-.758-.627-1.864-.94-3.32-.94H5v12h2.544v-4.268h1.092c1.488 0 2.636-.342 3.443-1.026.807-.684 1.211-1.672 1.211-2.963zM7.544 8.647V5.085h1.158c.695 0 1.205.142 1.53.427.326.284.489.725.489 1.321 0 .591-.194 1.041-.583 1.35-.388.31-.974.464-1.756.464h-.838z" fill="#fff" fillRule="evenodd"/></svg><svg width="19" height="19" viewBox="-2 -2 19 19" id="icon-phone-pink" x="143" y="451" xmlns="http://www.w3.org/2000/svg"><path d="M9.177 8.715l.49-.454.739-.655 4.136 4.593-.75.666-.45.418c-.331.308-.465.43-.513.47-2.422 2.001-6.38 1.132-9.552-2.343C.079 7.906-.407 3.81 1.94 1.658L3.658.111l4.147 4.606-.741.666-.81.729c.013.08.043.184.09.307.168.435.503.96.913 1.412.409.452.897.838 1.313 1.049.118.06.22.1.297.122l.31-.287zm1.086 1.708a9.72 9.72 0 01-.23.21c-1.102.954-2.878.055-4.253-1.466-1.377-1.523-2.094-3.382-1.015-4.395l.226-.204-1.48-1.644-.232.208c-1.406 1.29-1.066 4.158 1.468 6.935 2.526 2.768 5.324 3.382 6.816 2.15l.172-.16-1.472-1.634z" fill="#E8406C"/></svg><svg width="19" height="19" viewBox="-2 -2 19 19" id="icon-phone-purple" x="162" y="451" xmlns="http://www.w3.org/2000/svg"><path d="M9.177 8.715l.49-.454.739-.655 4.136 4.593-.75.666-.45.418c-.331.308-.465.43-.513.47-2.422 2.001-6.38 1.132-9.552-2.343C.079 7.906-.407 3.81 1.94 1.658L3.658.111l4.147 4.606-.741.666-.81.729c.013.08.043.184.09.307.168.435.503.96.913 1.412.409.452.897.838 1.313 1.049.118.06.22.1.297.122l.31-.287zm1.086 1.708a9.72 9.72 0 01-.23.21c-1.102.954-2.878.055-4.253-1.466-1.377-1.523-2.094-3.382-1.015-4.395l.226-.204-1.48-1.644-.232.208c-1.406 1.29-1.066 4.158 1.468 6.935 2.526 2.768 5.324 3.382 6.816 2.15l.172-.16-1.472-1.634z" fill="#931680"/></svg><svg width="19" height="19" viewBox="-2 -2 19 19" id="icon-phone-white" x="181" y="451" xmlns="http://www.w3.org/2000/svg"><path d="M9.177 8.715l.49-.454.739-.655 4.136 4.593-.75.666-.45.418c-.331.308-.465.43-.513.47-2.422 2.001-6.38 1.132-9.552-2.343C.079 7.906-.407 3.81 1.94 1.658L3.658.111l4.147 4.606-.741.666-.81.729c.013.08.043.184.09.307.168.435.503.96.913 1.412.409.452.897.838 1.313 1.049.118.06.22.1.297.122l.31-.287zm1.086 1.708a9.72 9.72 0 01-.23.21c-1.102.954-2.878.055-4.253-1.466-1.377-1.523-2.094-3.382-1.015-4.395l.226-.204-1.48-1.644-.232.208c-1.406 1.29-1.066 4.158 1.468 6.935 2.526 2.768 5.324 3.382 6.816 2.15l.172-.16-1.472-1.634z" fill="#FFF"/></svg><svg width="18" height="23" viewBox="-2 -2 18 23" id="icon-pin-pink-big" x="190" y="328" xmlns="http://www.w3.org/2000/svg"><path d="M11.021 10.191a5.133 5.133 0 10-4.488 1.921v2.586c2.6-2.376 4.125-3.916 4.488-4.507zm1.512 1.098c-.68.995-2.741 3.01-6.31 6.206L4.667 18.89v-5.287a7 7 0 117.866-2.313zm-5.57-7.126a2.8 2.8 0 110 5.6 2.8 2.8 0 010-5.6zm0 1.867a.933.933 0 100 1.867.933.933 0 000-1.867z" fill="#e8406c"/></svg><svg width="16" height="20" viewBox="-2 -2 16 20" id="icon-pin-purple" x="108" y="451" xmlns="http://www.w3.org/2000/svg"><path d="M5.906 9.858v1.832c1.898-1.748 3.016-2.886 3.276-3.315.545-.68.871-1.543.871-2.482a3.968 3.968 0 10-7.937-.008 3.97 3.97 0 003.79 3.973zm4.833-.364c-.575.835-2.249 2.471-5.151 5.074L3.99 16v-4.606a5.887 5.887 0 01-3.79-5.5 5.885 5.885 0 1111.77-.008c0 1.36-.46 2.611-1.231 3.608zm-4.684-6.11a2.475 2.475 0 11-.001 4.952 2.475 2.475 0 010-4.952zm0 1.916a.558.558 0 10.001 1.12.558.558 0 00-.001-1.12z" fill="#931680"/></svg><svg width="18" height="23" viewBox="-2 -2 18 23" id="icon-pin-purple-big" x="208" y="328" xmlns="http://www.w3.org/2000/svg"><path d="M11.021 10.191a5.133 5.133 0 10-4.488 1.921v2.586c2.6-2.376 4.125-3.916 4.488-4.507zm1.512 1.098c-.68.995-2.741 3.01-6.31 6.206L4.667 18.89v-5.287a7 7 0 117.866-2.313zm-5.57-7.126a2.8 2.8 0 110 5.6 2.8 2.8 0 010-5.6zm0 1.867a.933.933 0 100 1.867.933.933 0 000-1.867z" fill="#931680"/></svg><svg width="24" height="34" viewBox="-2 -2 24 34" id="icon-preparation-decor" x="457" y="196" xmlns="http://www.w3.org/2000/svg"><path d="M6.793 9.5a3.501 3.501 0 01.5 6.26c.943.726 1.71 1.489 2.297 2.29l-1.437 1.436c-.578-.878-1.458-1.73-2.653-2.56C3.13 18.57 2 20.308 2 22.149c0 .909.275 1.792.839 2.652l-1.437 1.436C.474 24.967 0 23.604 0 22.15c0-2.377 1.265-4.51 3.706-6.389a3.501 3.501 0 011.087-6.435V7.315c0-.597.132-1.09.399-1.684.058-.128.29-.615.246-.524.326-.69.455-1.156.455-1.877 0-1.009-1.423-1.35-1.939-.49-.216.36-.288.727-.363 1.672-.014.183-.02.26-.03.362C3.408 6.48 2.935 7.56 1.555 8.48L.445 6.818c.786-.525 1.02-1.059 1.124-2.224.009-.092.015-.164.028-.34.099-1.25.213-1.83.642-2.544C3.773-.846 7.893.14 7.893 3.23c0 1.056-.204 1.793-.645 2.729.032-.07-.185.386-.232.49-.16.358-.223.592-.223.865v2.187zm7-.174V7.314c0-.597.132-1.09.399-1.684.058-.128.29-.615.246-.524.326-.69.455-1.156.455-1.877 0-1.009-1.423-1.35-1.939-.49-.216.36-.288.727-.363 1.672-.014.183-.02.26-.03.362-.153 1.708-.626 2.787-2.006 3.708l-1.11-1.663c.786-.525 1.02-1.059 1.124-2.224.009-.092.015-.164.028-.34.099-1.25.213-1.83.642-2.544 1.534-2.556 5.654-1.57 5.654 1.52 0 1.056-.204 1.793-.645 2.729.032-.07-.185.386-.232.49-.16.358-.223.592-.223.865v2.187c.532.212 1 .55 1.367.978l-1.424 1.425a1.5 1.5 0 10-2.086 2.086l-1.425 1.424a3.501 3.501 0 011.568-6.088zM9.275 24.02l1.727-1.727c.058 1.787 1.19 3.477 3.498 5.079 2.37-1.645 3.5-3.383 3.5-5.224 0-1.541-.791-3.01-2.44-4.413l1.417-1.417C18.97 18.06 20 20.005 20 22.15c0 2.755-1.7 5.183-4.961 7.267l-.539.344-.539-.344C12.153 28.26 10.825 27 10 25.635c-.825 1.364-2.153 2.625-3.961 3.781l-.539.344-.539-.344c-.223-.143-.44-.287-.648-.433l4.962-4.962zM5.5 14.254a1.5 1.5 0 100-3 1.5 1.5 0 000 3z" fill="#FFF"/></svg><svg width="26" height="34" viewBox="-2 -2 26 34" id="icon-preparation-docs" x="481" y="196" xmlns="http://www.w3.org/2000/svg"><path d="M22 3v24a3 3 0 01-3 3H3a3 3 0 01-3-3V3a3 3 0 013-3h16a3 3 0 013 3zm-2 0a1 1 0 00-1-1H3a1 1 0 00-1 1v24a1 1 0 001 1h16a1 1 0 001-1V3zM8.124 13.78a4 4 0 115.805-.057 6.226 6.226 0 013.227 5.483c0 4.21-12.156 4.21-12.156 0 0-2.33 1.26-4.365 3.124-5.426zM11 13a2 2 0 100-4 2 2 0 000 4zm4.156 6.206c0-2.328-1.832-4.206-4.078-4.206C8.83 15 7 16.878 7 19.206c0 .5 1.74 1.157 4.078 1.157s4.078-.657 4.078-1.157z" fill="#FFF"/></svg><svg width="30" height="34" viewBox="-2 -2 30 34" id="icon-preparation-enroll" x="456.15" y="237" xmlns="http://www.w3.org/2000/svg"><path d="M10.34 19H5v-2h6.435l2-2H5v-2h10.435L20 8.435V6a1 1 0 00-1-1h-2v1a3 3 0 01-3 3H8a3 3 0 01-3-3V5H3a1 1 0 00-1 1v21a1 1 0 001 1h16a1 1 0 001-1v-8.665l-4.515 4.514L9.47 23.91l.87-4.91zM17 3h2a3 3 0 013 3v3.565l3.385 3.385L22 16.335V27a3 3 0 01-3 3H3a3 3 0 01-3-3V6a3 3 0 013-3h2a3 3 0 013-3h6a3 3 0 013 3zM8 2a1 1 0 00-1 1v3a1 1 0 001 1h6a1 1 0 001-1V3a1 1 0 00-1-1H8zm12.435 8.828L13.364 17.9l2.121 2.122 7.071-7.071-2.121-2.122zM5 21h2v2H5v-2z" fill="#FFF"/></svg><svg width="34" height="26" viewBox="-2 -2 34 26" id="icon-preparation-referral" x="486.15" y="237" xmlns="http://www.w3.org/2000/svg"><path d="M3 0h24a3 3 0 013 3v16a3 3 0 01-3 3H3a3 3 0 01-3-3V3a3 3 0 013-3zm0 2a1 1 0 00-1 1v16a1 1 0 001 1h24a1 1 0 001-1V3a1 1 0 00-1-1H3zm20 16a2 2 0 110-4 2 2 0 010 4zM5 6h20v2H5V6zm0 4h20v2H5v-2zm0 4h12v2H5v-2z" fill="#FFF"/></svg><svg width="22" height="21" viewBox="-2 -2 22 21" id="icon-print-purple" x="475" y="353" xmlns="http://www.w3.org/2000/svg"><path d="M16 8H2v3a1 1 0 001 1V9h12v3a1 1 0 001-1V8zm0-2V3a1 1 0 00-1-1H3a1 1 0 00-1 1v3h14zm-1 8v3H3v-3a3 3 0 01-3-3V3a3 3 0 013-3h12a3 3 0 013 3v8a3 3 0 01-3 3zM5 11v4h8v-4H5zm9-6a1 1 0 110-2 1 1 0 010 2z" fill="#931680" fillRule="evenodd"/></svg><svg width="46" height="46" viewBox="-2 -2 46 46" id="icon-question-color" x="228" y="395" xmlns="http://www.w3.org/2000/svg"><defs><linearGradient x1="0%" y1="48.843%" x2="99.186%" y2="48.843%" id="cua"><stop stop-color="#E8406C" offset="0%"/><stop stop-color="#EF816A" offset="100%"/></linearGradient></defs><path d="M21 42C9.402 42 0 32.598 0 21S9.402 0 21 0s21 9.402 21 21-9.402 21-21 21zm0-2c10.493 0 19-8.507 19-19S31.493 2 21 2 2 10.507 2 21s8.507 19 19 19zm-.412-8.077a1.37 1.37 0 01-1.367-1.368 1.37 1.37 0 011.367-1.367 1.37 1.37 0 011.368 1.367 1.37 1.37 0 01-1.368 1.368zm-.023-4.743c-.472 0-.839-.04-1.151-.105.05-.95-.196-3.664.532-5.272.727-1.608 1.987-2.253 2.73-2.784.742-.531 1.115-.731 1.476-1.27.36-.567.533-1.168.533-1.822 0-.951-.371-1.778-1.087-2.448-.71-.665-1.577-.998-2.576-.998-1 0-1.866.333-2.577.998-.573.537-.948 1.29-1.097 2.032a6.385 6.385 0 01-1.235.106c-.465 0-.9-.037-1.21-.1.096-1.363.68-2.534 1.765-3.533a6.143 6.143 0 011.983-1.258 6.566 6.566 0 012.37-.418c.858 0 1.656.141 2.376.418a6.203 6.203 0 011.99 1.256c1.185 1.098 1.769 2.405 1.769 3.945a5.206 5.206 0 01-.883 2.903c-.59.901-2.408 2.081-2.408 2.081s-1.445.993-1.884 2.017c-.439 1.024-.221 3.583-.267 4.147a5.47 5.47 0 01-1.149.105z" fill="url(#cua)"/></svg><svg width="14" height="14" viewBox="-2 -2 14 14" id="icon-remove-gray" x="493" y="417" xmlns="http://www.w3.org/2000/svg"><path d="M5.003 3.583L8.586 0 10 1.414 6.417 4.997 10 8.58 8.586 9.995 5.003 6.412 1.42 9.995.005 8.58l3.583-3.583L.005 1.414 1.42 0l3.583 3.583z" fill="#9BA0A3"/></svg><svg width="22" height="22" viewBox="-2 -2 22 22" id="icon-schedule-pink" x="376" y="395" xmlns="http://www.w3.org/2000/svg"><path d="M9 18A9 9 0 119 0a9 9 0 010 18zm0-2A7 7 0 109 2a7 7 0 000 14zm1-7.344l3.35-1.206.678 1.882-4.69 1.688A1 1 0 018 10.079V4h2v4.656z" fill="#e8406c"/></svg><svg width="22" height="22" viewBox="-2 -2 22 22" id="icon-schedule-purple" x="398" y="395" xmlns="http://www.w3.org/2000/svg"><path d="M9 18A9 9 0 119 0a9 9 0 010 18zm0-2A7 7 0 109 2a7 7 0 000 14zm1-7.344l3.35-1.206.678 1.882-4.69 1.688A1 1 0 018 10.079V4h2v4.656z" fill="#931680"/></svg><svg width="24" height="24" viewBox="-2 -2 24 24" id="icon-search-gray" x="214" y="353" xmlns="http://www.w3.org/2000/svg"><path d="M14.812 13.558l5.191 5.039-1.365 1.406-5.228-5.074a8.329 8.329 0 111.402-1.37zm-6.483 1.14a6.37 6.37 0 100-12.738 6.37 6.37 0 000 12.738z" fill="#9B9B9B"/></svg><svg width="22" height="22" viewBox="-2 -2 22 22" id="icon-support-gray" x="420" y="395" xmlns="http://www.w3.org/2000/svg"><path d="M11.915 2.39l.895-.894a1 1 0 011.414 0l1.886 1.886a1 1 0 010 1.414l-.76.76c.193.355.356.727.487 1.11H17a1 1 0 011 1v2.667a1 1 0 01-1 1h-1.163c-.1.292-.218.576-.353.851l.626.626a1 1 0 010 1.414l-1.886 1.886a1 1 0 01-1.414 0l-.626-.626c-.275.135-.56.253-.85.353V17a1 1 0 01-1 1H7.666a1 1 0 01-1-1v-1.163a7.187 7.187 0 01-1.111-.487l-.76.76a1 1 0 01-1.414 0l-1.886-1.886a1 1 0 010-1.414l.895-.895a7.179 7.179 0 01-.228-.582H1a1 1 0 01-1-1V7.667a1 1 0 011-1h1.163c.1-.292.218-.576.353-.851l-1.02-1.02a1 1 0 010-1.414l1.886-1.886a1 1 0 011.414 0l1.02 1.02c.275-.135.56-.253.85-.353V1a1 1 0 011-1h2.667a1 1 0 011 1v1.163c.198.068.392.143.582.228zm.902 1.927a1 1 0 01-1.207.158 5.182 5.182 0 00-1.49-.577 1 1 0 01-.787-.977V2h-.666v.921a1 1 0 01-.787.977 5.186 5.186 0 00-1.695.703 1 1 0 01-1.247-.135l-.85-.849-.47.472.848.849a1 1 0 01.135 1.247 5.186 5.186 0 00-.703 1.695 1 1 0 01-.977.787H2v.666h.921a1 1 0 01.977.787c.115.525.31 1.027.577 1.49a1 1 0 01-.158 1.207l-.7.7.472.471.613-.613a1 1 0 011.285-.11c.568.403 1.21.688 1.893.837a1 1 0 01.787.977V16h.666v-.921a1 1 0 01.787-.977 5.186 5.186 0 001.695-.703 1 1 0 011.247.135l.455.454.471-.471-.454-.455a1 1 0 01-.135-1.247c.333-.518.571-1.09.703-1.695a1 1 0 01.977-.787H16v-.666h-.921a1 1 0 01-.977-.787 5.191 5.191 0 00-.836-1.893 1 1 0 01.109-1.285l.613-.613-.471-.472-.7.7zM9 12a3 3 0 110-6 3 3 0 010 6zm0-2a1 1 0 100-2 1 1 0 000 2z" fill="#9BA0A3"/></svg><svg width="22" height="22" viewBox="-2 -2 22 22" id="icon-support-purple" x="442" y="395" xmlns="http://www.w3.org/2000/svg"><path d="M11.915 2.39l.895-.894a1 1 0 011.414 0l1.886 1.886a1 1 0 010 1.414l-.76.76c.193.355.356.727.487 1.11H17a1 1 0 011 1v2.667a1 1 0 01-1 1h-1.163c-.1.292-.218.576-.353.851l.626.626a1 1 0 010 1.414l-1.886 1.886a1 1 0 01-1.414 0l-.626-.626c-.275.135-.56.253-.85.353V17a1 1 0 01-1 1H7.666a1 1 0 01-1-1v-1.163a7.187 7.187 0 01-1.111-.487l-.76.76a1 1 0 01-1.414 0l-1.886-1.886a1 1 0 010-1.414l.895-.895a7.179 7.179 0 01-.228-.582H1a1 1 0 01-1-1V7.667a1 1 0 011-1h1.163c.1-.292.218-.576.353-.851l-1.02-1.02a1 1 0 010-1.414l1.886-1.886a1 1 0 011.414 0l1.02 1.02c.275-.135.56-.253.85-.353V1a1 1 0 011-1h2.667a1 1 0 011 1v1.163c.198.068.392.143.582.228zm.902 1.927a1 1 0 01-1.207.158 5.182 5.182 0 00-1.49-.577 1 1 0 01-.787-.977V2h-.666v.921a1 1 0 01-.787.977 5.186 5.186 0 00-1.695.703 1 1 0 01-1.247-.135l-.85-.849-.47.472.848.849a1 1 0 01.135 1.247 5.186 5.186 0 00-.703 1.695 1 1 0 01-.977.787H2v.666h.921a1 1 0 01.977.787c.115.525.31 1.027.577 1.49a1 1 0 01-.158 1.207l-.7.7.472.471.613-.613a1 1 0 011.285-.11c.568.403 1.21.688 1.893.837a1 1 0 01.787.977V16h.666v-.921a1 1 0 01.787-.977 5.186 5.186 0 001.695-.703 1 1 0 011.247.135l.455.454.471-.471-.454-.455a1 1 0 01-.135-1.247c.333-.518.571-1.09.703-1.695a1 1 0 01.977-.787H16v-.666h-.921a1 1 0 01-.977-.787 5.191 5.191 0 00-.836-1.893 1 1 0 01.109-1.285l.613-.613-.471-.472-.7.7zM9 12a3 3 0 110-6 3 3 0 010 6zm0-2a1 1 0 100-2 1 1 0 000 2z" fill="#9C2C8C"/></svg><svg width="22" height="22" viewBox="-2 -2 22 22" id="icon-support-white" x="464" y="395" xmlns="http://www.w3.org/2000/svg"><path d="M11.915 2.39l.895-.894a1 1 0 011.414 0l1.886 1.886a1 1 0 010 1.414l-.76.76c.193.355.356.727.487 1.11H17a1 1 0 011 1v2.667a1 1 0 01-1 1h-1.163c-.1.292-.218.576-.353.851l.626.626a1 1 0 010 1.414l-1.886 1.886a1 1 0 01-1.414 0l-.626-.626c-.275.135-.56.253-.85.353V17a1 1 0 01-1 1H7.666a1 1 0 01-1-1v-1.163a7.187 7.187 0 01-1.111-.487l-.76.76a1 1 0 01-1.414 0l-1.886-1.886a1 1 0 010-1.414l.895-.895a7.179 7.179 0 01-.228-.582H1a1 1 0 01-1-1V7.667a1 1 0 011-1h1.163c.1-.292.218-.576.353-.851l-1.02-1.02a1 1 0 010-1.414l1.886-1.886a1 1 0 011.414 0l1.02 1.02c.275-.135.56-.253.85-.353V1a1 1 0 011-1h2.667a1 1 0 011 1v1.163c.198.068.392.143.582.228zm.902 1.927a1 1 0 01-1.207.158 5.182 5.182 0 00-1.49-.577 1 1 0 01-.787-.977V2h-.666v.921a1 1 0 01-.787.977 5.186 5.186 0 00-1.695.703 1 1 0 01-1.247-.135l-.85-.849-.47.472.848.849a1 1 0 01.135 1.247 5.186 5.186 0 00-.703 1.695 1 1 0 01-.977.787H2v.666h.921a1 1 0 01.977.787c.115.525.31 1.027.577 1.49a1 1 0 01-.158 1.207l-.7.7.472.471.613-.613a1 1 0 011.285-.11c.568.403 1.21.688 1.893.837a1 1 0 01.787.977V16h.666v-.921a1 1 0 01.787-.977 5.186 5.186 0 001.695-.703 1 1 0 011.247.135l.455.454.471-.471-.454-.455a1 1 0 01-.135-1.247c.333-.518.571-1.09.703-1.695a1 1 0 01.977-.787H16v-.666h-.921a1 1 0 01-.977-.787 5.191 5.191 0 00-.836-1.893 1 1 0 01.109-1.285l.613-.613-.471-.472-.7.7zM9 12a3 3 0 110-6 3 3 0 010 6zm0-2a1 1 0 100-2 1 1 0 000 2z" fill="#fff"/></svg><svg width="22" height="22" fill="none" viewBox="-2 -2 22 22" id="icon-vakansii" x="486" y="395" xmlns="http://www.w3.org/2000/svg"><circle cx="8" cy="8" r="7.1" stroke="#931680" stroke-width="1.8"/><path stroke="#931680" stroke-width="1.8" d="M12.435 13.128l4.204 4.238"/><circle cx="8" cy="6.133" fill="#931680" r="1.867"/><path d="M4.266 11.733a3.2 3.2 0 013.2-3.2h1.067a3.2 3.2 0 013.2 3.2H4.266z" fill="#931680"/></svg><svg width="24" height="20" viewBox="-2 -2 24 20" id="icon-yes" x="440.18" y="277.32" xmlns="http://www.w3.org/2000/svg"><path d="M7.636 15.273L0 7.636l2.91-2.909 4.726 4.728L17.091 0 20 2.91z" fill="#931680" fillRule="evenodd"/></svg><svg width="32" height="32" viewBox="-2 -2 32 32" id="icon-zoom-white" x="158" y="353" xmlns="http://www.w3.org/2000/svg"><path d="M5 0h18a5 5 0 015 5v18a5 5 0 01-5 5H5a5 5 0 01-5-5V5a5 5 0 015-5zm0 2a3 3 0 00-3 3v18a3 3 0 003 3h18a3 3 0 003-3V5a3 3 0 00-3-3H5zm12.68 7H14V7h7v7h-2v-3.728L10.293 19H14v2H7v-7h2v3.7L17.68 9z" fill="#FFF"/></svg><svg width="196" height="98" viewBox="-2 -2 196 98" id="logo-diagnostic-full" x="334" xmlns="http://www.w3.org/2000/svg"><g fill="none" fillRule="evenodd"><path d="M45.106 7.187a26.48 26.48 0 00-10.594-6.004 42.273 42.273 0 015.306 9.317 21.166 21.166 0 015.288-3.313M34.512 52a26.452 26.452 0 0010.594-6.002 21.263 21.263 0 01-5.288-3.315 42.244 42.244 0 01-5.306 9.317" fill="#E77F75"/><path d="M42.991 26.594a42.17 42.17 0 01-3.173 16.09A21.248 21.248 0 0045.107 46a26.49 26.49 0 006.37-9.03c-4.84-.98-8.486-5.252-8.486-10.375M42.991 26.594c0-5.125 3.645-9.4 8.486-10.377a26.466 26.466 0 00-6.37-9.03 21.168 21.168 0 00-5.29 3.312 42.18 42.18 0 013.174 16.095" fill="#EC9867"/><path d="M42.991 26.594c0 5.123 3.645 9.395 8.486 10.375a26.36 26.36 0 002.116-10.375c0-3.685-.755-7.192-2.116-10.377-4.84.978-8.486 5.252-8.486 10.377" fill="#F1AA59"/><path d="M34.507 52.003a31.96 31.96 0 01-7.418-7.857 31.982 31.982 0 01-7.42 7.857 26.545 26.545 0 0014.838 0M27.089 9.038a31.962 31.962 0 017.418-7.855 26.519 26.519 0 00-14.838 0 31.97 31.97 0 017.42 7.855" fill="#E25D75"/><path d="M27.089 9.038a31.581 31.581 0 015.299 17.556c0-6.444 2.884-12.21 7.43-16.094a42.234 42.234 0 00-5.306-9.317h-.005a31.962 31.962 0 00-7.418 7.855m5.299 17.556a31.57 31.57 0 01-5.3 17.552 31.984 31.984 0 007.419 7.857l.005-.002a42.244 42.244 0 005.306-9.317c-4.546-3.884-7.43-9.65-7.43-16.09" fill="#E46A66"/><path d="M39.818 42.684a42.181 42.181 0 003.173-16.09c0-5.7-1.131-11.131-3.173-16.095-4.546 3.884-7.43 9.65-7.43 16.095 0 6.44 2.884 12.206 7.43 16.09" fill="#E77D68"/><path d="M19.661 1.183a26.457 26.457 0 00-10.59 6.004 21.16 21.16 0 015.284 3.313 42.27 42.27 0 015.306-9.317M9.071 45.999a26.43 26.43 0 0010.59 6.002 42.364 42.364 0 01-5.305-9.317A21.241 21.241 0 019.07 46" fill="#B75381"/><path d="M27.089 44.146a31.542 31.542 0 01-5.302-17.552A31.553 31.553 0 0127.09 9.038a31.98 31.98 0 00-7.42-7.855h-.008a42.27 42.27 0 00-5.306 9.317c4.547 3.883 7.432 9.65 7.432 16.094 0 6.44-2.885 12.207-7.432 16.09a42.346 42.346 0 005.306 9.317l.008.002a31.991 31.991 0 007.42-7.857" fill="#C04672"/><path d="M27.089 9.038a31.553 31.553 0 00-5.302 17.556c0 6.49 1.952 12.524 5.302 17.552a31.57 31.57 0 005.299-17.552 31.581 31.581 0 00-5.3-17.556" fill="#DE4A6A"/><path d="M11.185 26.594c0-5.7 1.128-11.131 3.17-16.095A21.15 21.15 0 009.07 7.187a26.483 26.483 0 00-6.37 9.03c4.839.978 8.485 5.252 8.485 10.377M11.185 26.594c0 5.123-3.646 9.395-8.485 10.375A26.507 26.507 0 009.07 46a21.23 21.23 0 005.286-3.315 42.167 42.167 0 01-3.17-16.09" fill="#933D86"/><path d="M14.356 42.684c4.547-3.884 7.431-9.65 7.431-16.09 0-6.445-2.884-12.21-7.431-16.095a42.178 42.178 0 00-3.17 16.095 42.167 42.167 0 003.17 16.09" fill="#AE3572"/><path d="M11.185 26.594c0-5.125-3.646-9.4-8.485-10.377A26.33 26.33 0 00.582 26.594c0 3.68.756 7.19 2.118 10.375 4.839-.98 8.485-5.252 8.485-10.375" fill="#812C7C"/><path fill="#1A1919" d="M84.545 24.232h-6.588v11.165h-3.08V21.374h12.746v14.023h-3.078zm6.507 11.165V21.374h3.078v9.142l7.454-9.142h2.673v14.023h-3.079v-9.115l-7.453 9.115zm16.633-14.024h3.079v5.69l6.076-5.69h4.024l-6.834 6.338 7.076 7.686h-3.943l-5.372-5.771-1.027.997v4.774h-3.079zm23.413 9.601v-1.348c-.569-.189-1.568-.378-2.567-.378-2.214 0-3.7.459-3.7 1.86 0 1.107 1.026 1.78 2.593 1.78 1.864 0 3.052-.97 3.674-1.914zm-8.561-7.847c1.322-1.295 3.59-2.077 5.887-2.077 3.7 0 5.751 2.103 5.751 5.771v8.576h-3.077v-1.538c-.838.917-2.27 1.7-4.35 1.7-3.078 0-5.103-1.726-5.103-4.423 0-3.128 2.835-4.45 6.563-4.45.999 0 2.241.162 2.89.378.025-2.023-.758-3.156-3.026-3.156-1.54 0-2.673.459-4.024 1.484l-1.511-2.265zm27.893 9.06c-1.16 2.266-3.591 3.453-6.022 3.453-4.51 0-7.561-2.859-7.561-7.281 0-4.154 2.97-7.31 7.4-7.31 2.888 0 5.103 1.322 6.021 3.183l-2.295 1.51c-.945-1.267-1.998-1.834-3.592-1.834-2.539 0-4.348 1.807-4.348 4.45 0 2.536 1.836 4.423 4.671 4.423 1.594 0 2.756-.81 3.539-1.995l2.187 1.402zm14.312 0c-1.162 2.266-3.593 3.453-6.023 3.453-4.51 0-7.562-2.859-7.562-7.281 0-4.154 2.972-7.31 7.4-7.31 2.89 0 5.104 1.322 6.021 3.183l-2.294 1.51c-.946-1.267-1.998-1.834-3.592-1.834-2.538 0-4.348 1.807-4.348 4.45 0 2.536 1.837 4.423 4.673 4.423 1.592 0 2.753-.81 3.536-1.995l2.19 1.402zm8.234.594c2.565 0 4.349-1.726 4.349-4.422 0-2.724-1.919-4.45-4.349-4.45-2.458 0-4.322 1.699-4.322 4.45 0 2.535 1.757 4.422 4.322 4.422m0-11.731c4.429 0 7.534 3.074 7.534 7.309 0 4.206-3.105 7.28-7.534 7.28-4.376 0-7.507-3.074-7.507-7.28 0-4.235 3.051-7.31 7.507-7.31M81.764 52.359h-5.977v4.285h-.943v-9.286h.943v4.126h5.977v-4.126h.943v9.286h-.943zm3.585.292h4.835c-.04-1.42-.917-2.269-2.312-2.269-1.474 0-2.378.97-2.523 2.269zm5.512 2.68c-.624.968-1.634 1.445-2.75 1.445-2.193 0-3.667-1.406-3.667-3.595 0-2.03 1.223-3.608 3.494-3.608 1.82 0 3.174 1.234 3.174 3.13 0 .24-.025.505-.053.744h-5.697c.025 1.591 1.209 2.507 2.789 2.507.89 0 1.713-.517 2.126-1.141l.584.517zm1.219-.08l.691-.491c.385.69 1.262 1.207 2.378 1.207 1.181 0 2.139-.517 2.139-1.366 0-.716-.571-1.075-1.583-1.075h-1.672v-.795h1.595c.702 0 1.394-.438 1.394-1.168 0-.783-.837-1.18-1.926-1.18-1.116 0-1.728.543-2.126 1.008l-.65-.424c.37-.624 1.382-1.394 2.894-1.394 1.715 0 2.738.716 2.738 1.831 0 .703-.346 1.233-.93 1.552.93.385 1.181.902 1.181 1.606 0 1.432-1.354 2.215-2.948 2.215-1.66 0-2.604-.624-3.175-1.526m12.337-.85v-.822a5.997 5.997 0 00-1.62-.212c-1.58 0-2.578.305-2.578 1.26 0 .823.772 1.314 1.834 1.314 1.303 0 2.113-.942 2.364-1.54zm-4.649-3.86c.638-.583 1.727-.967 2.67-.967 1.887 0 2.844 1.02 2.844 2.785v4.285h-.865v-1.141c-.438.65-1.288 1.233-2.603 1.233-1.487 0-2.498-.808-2.498-2.055 0-1.473 1.25-2.096 3.361-2.096.532 0 1.382.105 1.74.212 0-1.42-.411-2.401-2.084-2.401-.798 0-1.49.331-2.1.81l-.465-.664zm8.274 2.985v2.309h1.991c1.355 0 2.073-.358 2.073-1.18 0-.797-.638-1.129-1.872-1.129h-2.192zm0-2.97v2.175h2.298c.93 0 1.514-.412 1.514-1.128 0-.876-.85-1.048-1.885-1.048h-1.927zm-.865-.81h2.83c1.847 0 2.763.437 2.763 1.724 0 .73-.344 1.22-.969 1.539.824.225 1.222.835 1.222 1.711 0 1.26-1.01 1.924-2.896 1.924h-2.95v-6.898zm7.478 6.898v-6.898h.864v5.624l4.555-5.624h.838v6.898h-.864V51.03l-4.556 5.612zm14.278-1.314c-.505.942-1.713 1.446-2.75 1.446-2.191 0-3.68-1.406-3.68-3.595 0-2.029 1.434-3.608 3.626-3.608 1.116 0 2.207.518 2.684 1.314l-.678.477c-.504-.663-1.115-.968-2.006-.968-1.552 0-2.709 1.167-2.709 2.785 0 1.685 1.157 2.772 2.83 2.772.877 0 1.634-.45 2.086-1.1l.597.477zm1.273 1.314v-6.898h.862v5.624l4.557-5.624h.837v6.898h-.864V51.03l-4.555 5.612zm8.272-6.898h.81l2.831 3.648 2.776-3.648h.758v6.898h-.865V51.23l-2.669 3.488-2.776-3.488v5.412h-.865zm15.698 6.898h.865v-6.898h-.865v6.898zm-5.645-3.821v2.998h1.542c1.475 0 2.004-.57 2.004-1.499 0-.942-.557-1.499-1.991-1.499h-1.555zm-.863-3.077h.863V52h1.688c2.138 0 2.776 1.048 2.776 2.308 0 1.22-.717 2.335-2.896 2.335h-2.43v-6.898zm9.853 2.905h4.836c-.041-1.42-.917-2.269-2.313-2.269-1.474 0-2.377.97-2.523 2.269zm5.513 2.68c-.624.968-1.633 1.445-2.749 1.445-2.192 0-3.667-1.406-3.667-3.595 0-2.03 1.222-3.608 3.494-3.608 1.82 0 3.175 1.234 3.175 3.13 0 .24-.028.505-.053.744h-5.7c.027 1.591 1.209 2.507 2.79 2.507.891 0 1.713-.517 2.125-1.141l.585.517zM74.697 67.364h.865v6.076h4.276v-6.076h.865v6.076h1.008v2.546h-.822v-1.724h-6.192zm8.753 2.905h4.835c-.04-1.42-.918-2.268-2.312-2.268-1.475 0-2.378.968-2.523 2.268zm5.512 2.68c-.624.968-1.634 1.445-2.75 1.445-2.192 0-3.667-1.406-3.667-3.595 0-2.029 1.224-3.608 3.494-3.608 1.82 0 3.175 1.234 3.175 3.131 0 .239-.026.504-.053.743h-5.698c.026 1.591 1.209 2.507 2.788 2.507.891 0 1.713-.517 2.127-1.14l.584.516zm7.104-1.791H91.67v3.104h-.864v-6.898h.864v2.971h4.397v-2.971h.863v6.898h-.863zm2.016-3.794h6.337v.822h-2.75v6.076h-.864v-6.076h-2.723zm8.354 2.295v2.68c.492.902 1.367 1.233 2.258 1.233 1.474 0 2.55-1.18 2.55-2.826 0-1.631-.93-2.732-2.43-2.732-1.236 0-2.087.85-2.378 1.645zm-.864-2.295h.864v1.022c.558-.876 1.54-1.194 2.458-1.194 2.031 0 3.268 1.445 3.268 3.488 0 2.122-1.41 3.714-3.441 3.714-1.063 0-1.727-.251-2.285-.822v3.343h-.864v-9.551zm14.702 6.898h.865v-6.898h-.865v6.898zm-5.645-3.82v2.997h1.541c1.475 0 2.005-.57 2.005-1.499 0-.941-.557-1.499-1.992-1.499h-1.554zm-.863-3.078h.863v2.255h1.687c2.139 0 2.777 1.048 2.777 2.308 0 1.22-.718 2.335-2.897 2.335h-2.43v-6.898zm14.486 2.295v2.68c.492.902 1.37 1.233 2.26 1.233 1.474 0 2.55-1.18 2.55-2.826 0-1.631-.93-2.732-2.432-2.732-1.235 0-2.085.85-2.378 1.645zm-.863-2.295h.863v1.022c.559-.876 1.542-1.194 2.457-1.194 2.033 0 3.269 1.445 3.269 3.488 0 2.122-1.408 3.714-3.441 3.714-1.063 0-1.726-.251-2.285-.822v3.343h-.863v-9.551zm8.672 2.905h4.835c-.04-1.42-.916-2.268-2.312-2.268-1.475 0-2.378.968-2.523 2.268zm5.512 2.68c-.624.968-1.633 1.445-2.749 1.445-2.192 0-3.666-1.406-3.666-3.595 0-2.029 1.221-3.608 3.493-3.608 1.82 0 3.175 1.234 3.175 3.131 0 .239-.027.504-.053.743h-5.7c.027 1.591 1.209 2.507 2.791 2.507.89 0 1.713-.517 2.125-1.14l.584.516zm7.104-1.791h-4.397v3.104h-.863v-6.898h.863v2.971h4.397v-2.971h.864v6.898h-.864zm2.017-3.794h6.337v.822h-2.75v6.076h-.863v-6.076h-2.724zm7.49 0h4.928v.822h-4.065v6.076h-.863zm6.308 2.905h4.836c-.041-1.42-.917-2.268-2.313-2.268-1.474 0-2.378.968-2.523 2.268zm5.513 2.68c-.624.968-1.633 1.445-2.749 1.445-2.192 0-3.667-1.406-3.667-3.595 0-2.029 1.222-3.608 3.494-3.608 1.82 0 3.175 1.234 3.175 3.131 0 .239-.028.504-.053.743h-5.7c.027 1.591 1.209 2.507 2.79 2.507.891 0 1.713-.517 2.125-1.14l.585.516zm7.104-1.791h-4.397v3.104h-.863v-6.898h.863v2.971h4.397v-2.971h.864v6.898h-.864zm6.095 2.414c1.595 0 2.723-1.128 2.723-2.773 0-1.644-1.169-2.785-2.723-2.785-1.568 0-2.724 1.127-2.724 2.785 0 1.619 1.13 2.773 2.724 2.773m0-6.38c2.152 0 3.64 1.511 3.64 3.607 0 2.083-1.488 3.595-3.64 3.595s-3.64-1.512-3.64-3.595c0-2.096 1.475-3.608 3.64-3.608m5.55 3.847h3.187v-.809h-3.188zM76.41 86.616c0 1.699-.212 3.37-.837 4.444h4.199v-5.253H76.41v.81zm-2.537 4.444h.745c.783-1.128.955-2.745.955-4.603v-1.472h5.06v6.075h1.024v2.547h-.824v-1.725h-6.137v1.725h-.823V91.06zm8.977.822v-6.898h.863v5.625l4.557-5.625h.837v6.898h-.865v-5.61l-4.554 5.61zm12.856-2.241v-.823a6.004 6.004 0 00-1.62-.212c-1.582 0-2.577.305-2.577 1.26 0 .822.77 1.314 1.833 1.314 1.302 0 2.112-.942 2.364-1.54zm-4.649-3.86c.637-.584 1.726-.97 2.67-.97 1.887 0 2.843 1.022 2.843 2.787v4.284h-.864v-1.14c-.438.65-1.288 1.233-2.603 1.233-1.488 0-2.498-.808-2.498-2.056 0-1.472 1.249-2.095 3.361-2.095.532 0 1.382.105 1.74.212 0-1.42-.41-2.402-2.086-2.402-.797 0-1.487.332-2.099.81l-.464-.664zm7.408-.796h4.928v.822h-4.063v6.076h-.865zm11.344 3.793h-4.397v3.104h-.864v-6.897h.864v2.971h4.397v-2.971h.863v6.897h-.863zm6.095 2.415c1.593 0 2.723-1.128 2.723-2.773 0-1.645-1.17-2.786-2.723-2.786-1.568 0-2.723 1.128-2.723 2.786 0 1.619 1.128 2.773 2.723 2.773m0-6.381c2.151 0 3.64 1.512 3.64 3.608 0 2.083-1.489 3.595-3.64 3.595-2.152 0-3.641-1.512-3.641-3.595 0-2.096 1.474-3.608 3.641-3.608m11.234 5.757c-.504.943-1.713 1.446-2.748 1.446-2.193 0-3.681-1.406-3.681-3.595 0-2.03 1.434-3.608 3.626-3.608 1.116 0 2.206.517 2.684 1.313l-.677.478c-.505-.664-1.117-.969-2.007-.969-1.553 0-2.71 1.168-2.71 2.786 0 1.685 1.157 2.773 2.83 2.773a2.54 2.54 0 002.086-1.101l.597.477zm.37-5.584h6.336v.822h-2.75v6.076h-.864v-6.076h-2.722zm7.49 6.897v-6.898h.863v5.625l4.556-5.625h.838v6.898h-.865v-5.61l-4.555 5.61zm8.273-6.897h.864v3.33l3.825-3.33h1.183l-3.706 3.197 3.918 3.7h-1.195l-3.4-3.17-.625.557v2.614h-.864zm7.238 6.897v-6.898h.863v5.625l4.556-5.625h.838v6.898h-.865v-5.61l-4.554 5.61z"/></g></svg><svg width="123" height="41" viewBox="-2 -2 123 41" id="logo-diagnostic-small" x="334" y="196" xmlns="http://www.w3.org/2000/svg"><g fill="none" fillRule="evenodd"><path d="M30.726 5.086A18.12 18.12 0 0023.468.952a29.14 29.14 0 013.635 6.415c1.082-.93 2.3-1.701 3.623-2.281m-7.258 30.852a18.1 18.1 0 007.258-4.132 14.557 14.557 0 01-3.623-2.282 29.12 29.12 0 01-3.635 6.414" fill="#E77F75"/><path d="M29.277 18.447c0 3.92-.774 7.661-2.174 11.077 1.082.93 2.3 1.7 3.623 2.282a18.237 18.237 0 004.365-6.216 7.286 7.286 0 01-5.814-7.143m0 0a7.284 7.284 0 015.814-7.144 18.22 18.22 0 00-4.365-6.217 14.492 14.492 0 00-3.623 2.28 29.162 29.162 0 012.174 11.08" fill="#EC9867"/><path d="M29.277 18.447a7.286 7.286 0 005.814 7.143 18.224 18.224 0 001.45-7.143c0-2.537-.518-4.951-1.45-7.144a7.284 7.284 0 00-5.814 7.144" fill="#F1AA59"/><path d="M23.465 35.94a21.96 21.96 0 01-5.083-5.41 21.974 21.974 0 01-5.084 5.41 18.105 18.105 0 0010.167 0M18.382 6.36A21.96 21.96 0 0123.464.952a18.087 18.087 0 00-10.165 0 21.965 21.965 0 015.083 5.408" fill="#E25D75"/><path d="M18.382 6.36a21.817 21.817 0 013.63 12.087 14.56 14.56 0 015.091-11.08A29.113 29.113 0 0023.468.952h-.004a21.96 21.96 0 00-5.082 5.408m3.63 12.087a21.81 21.81 0 01-3.63 12.083 21.975 21.975 0 005.082 5.41l.004-.002a29.12 29.12 0 003.635-6.414 14.56 14.56 0 01-5.09-11.077" fill="#E46A66"/><path d="M27.103 29.524a29.163 29.163 0 002.174-11.077 29.17 29.17 0 00-2.174-11.08 14.561 14.561 0 00-5.09 11.08 14.56 14.56 0 005.09 11.077" fill="#E77D68"/><path d="M13.293.952a18.104 18.104 0 00-7.255 4.134c1.321.58 2.54 1.352 3.62 2.28A29.139 29.139 0 0113.293.953M6.038 31.806a18.085 18.085 0 007.255 4.132 29.203 29.203 0 01-3.634-6.414c-1.082.93-2.3 1.7-3.621 2.282" fill="#B75381"/><path d="M18.382 30.53a21.79 21.79 0 01-3.632-12.083c0-4.471 1.337-8.624 3.632-12.087A21.973 21.973 0 0013.3.952h-.006a29.139 29.139 0 00-3.635 6.415 14.56 14.56 0 015.092 11.08 14.56 14.56 0 01-5.092 11.077 29.19 29.19 0 003.635 6.414l.006.002a21.98 21.98 0 005.083-5.41" fill="#C04672"/><path d="M18.382 6.36a21.798 21.798 0 00-3.632 12.087 21.79 21.79 0 003.632 12.083 21.81 21.81 0 003.63-12.083c0-4.471-1.337-8.624-3.63-12.087" fill="#DE4A6A"/><path d="M7.486 18.447c0-3.924.773-7.663 2.173-11.08a14.48 14.48 0 00-3.622-2.28 18.232 18.232 0 00-4.364 6.216 7.285 7.285 0 015.813 7.144m0 0a7.287 7.287 0 01-5.813 7.143 18.249 18.249 0 004.364 6.216 14.535 14.535 0 003.622-2.282 29.153 29.153 0 01-2.173-11.077" fill="#933D86"/><path d="M9.659 29.524a14.56 14.56 0 005.091-11.077c0-4.437-1.976-8.407-5.091-11.08a29.16 29.16 0 00-2.173 11.08c0 3.92.773 7.661 2.173 11.077" fill="#AE3572"/><path d="M7.486 18.447a7.285 7.285 0 00-5.813-7.144 18.203 18.203 0 00-1.451 7.144c0 2.534.518 4.95 1.451 7.143a7.287 7.287 0 005.813-7.143" fill="#812C7C"/><path d="M52.621 16.82h-4.514v7.687h-2.109v-9.654h8.732v9.654h-2.109v-7.686zm4.458 7.687v-9.654h2.11v6.294l5.106-6.294h1.831v9.654h-2.109v-6.275l-5.106 6.275h-1.832zm11.396-9.654h2.11v3.917l4.162-3.917h2.757l-4.682 4.363 4.848 5.291h-2.701l-3.681-3.973-.704.687v3.286h-2.11v-9.654zm16.04 6.61v-.929c-.39-.13-1.074-.26-1.758-.26-1.517 0-2.536.316-2.536 1.28 0 .762.704 1.227 1.777 1.227 1.278 0 2.091-.669 2.517-1.319zM78.65 16.06c.906-.892 2.46-1.43 4.033-1.43 2.535 0 3.94 1.448 3.94 3.973v5.904h-2.108V23.45c-.574.631-1.555 1.17-2.98 1.17-2.109 0-3.496-1.189-3.496-3.045 0-2.154 1.942-3.064 4.496-3.064.685 0 1.536.112 1.98.26.017-1.392-.519-2.172-2.073-2.172-1.055 0-1.831.315-2.757 1.021l-1.035-1.56zm19.11 6.238c-.795 1.56-2.46 2.376-4.126 2.376-3.09 0-5.18-1.968-5.18-5.012 0-2.86 2.035-5.032 5.07-5.032 1.978 0 3.496.91 4.125 2.19l-1.573 1.04c-.647-.872-1.368-1.262-2.46-1.262-1.74 0-2.98 1.244-2.98 3.064 0 1.745 1.259 3.044 3.201 3.044 1.092 0 1.888-.557 2.424-1.373l1.499.965zm9.805 0c-.796 1.56-2.461 2.376-4.127 2.376-3.089 0-5.18-1.968-5.18-5.012 0-2.86 2.036-5.032 5.07-5.032 1.98 0 3.497.91 4.125 2.19l-1.572 1.04c-.648-.872-1.368-1.262-2.46-1.262-1.74 0-2.98 1.244-2.98 3.064 0 1.745 1.26 3.044 3.202 3.044 1.09 0 1.886-.557 2.422-1.373l1.5.965zm5.642.408c1.757 0 2.979-1.188 2.979-3.044 0-1.876-1.315-3.064-2.98-3.064-1.683 0-2.96 1.17-2.96 3.064 0 1.745 1.203 3.044 2.96 3.044zm0-8.076c3.034 0 5.161 2.117 5.161 5.032 0 2.896-2.127 5.012-5.161 5.012-2.998 0-5.144-2.116-5.144-5.012 0-2.915 2.09-5.032 5.144-5.032z" fill="#1A1919"/></g></svg><svg version="1.1" id="logo-diagnostic-white" viewBox="-2 -2 334 299" xml:space="preserve" width="334" height="299" xmlns="http://www.w3.org/2000/svg"><style>.dhst0{fill:#fff}</style><path class="dhst0" d="M44.6 71.8c4.1-3.8 6.7-9.2 6.7-15.2s-2.6-11.4-6.7-15.2c-1.8 4.7-2.9 9.8-2.9 15.2 0 5.4 1 10.5 2.9 15.2zM48.8 81.8c-1.8-2.5-3.4-5.3-4.7-8.2-1.4 1.1-3 2.1-4.6 2.8 2.7 2.4 5.8 4.2 9.3 5.4zM61.8 56.6c0-6.1-1.7-11.7-4.8-16.5-3 4.8-4.8 10.5-4.8 16.5 0 6.1 1.7 11.7 4.8 16.5 3.1-4.7 4.8-10.4 4.8-16.5z"/><path class="dhst0" d="M56.4 74.2c-2.4-3.6-4-7.8-4.8-12.3-1.1 4.3-3.4 8.1-6.7 11 1.3 3 2.9 5.8 4.8 8.4 2.6-2 4.9-4.4 6.7-7.1zM70.5 40.7c1.5 3.6 2.4 7.5 2.9 11.6 1.4-3.3 4.3-5.8 7.9-6.5-1.4-3.1-3.3-5.8-5.7-8.1-1.9.7-3.6 1.7-5.1 3z"/><path class="dhst0" d="M73.5 56.6c0 4.9 3.5 8.9 8.1 9.8 1.2-3 1.9-6.4 1.9-9.8 0-3.5-.7-6.8-1.9-9.8-4.6.9-8.1 4.9-8.1 9.8zM57.7 39.1c2.4 3.6 4 7.8 4.8 12.2 1.1-4.3 3.4-8.1 6.7-11-1.3-3-2.9-5.8-4.8-8.4-2.6 2.1-4.8 4.5-6.7 7.2zM51.7 51.3c.7-4.5 2.4-8.6 4.8-12.3-1.8-2.7-4.1-5.1-6.7-7.1-1.9 2.6-3.5 5.4-4.8 8.4 3.2 2.9 5.6 6.7 6.7 11zM44.1 39.6c1.3-2.9 2.8-5.6 4.7-8.2-3.5 1.1-6.6 3-9.3 5.3 1.7.8 3.2 1.8 4.6 2.9z"/><path class="dhst0" d="M69.6 41.4c-4.1 3.8-6.7 9.2-6.7 15.2s2.6 11.4 6.7 15.2c1.8-4.7 2.9-9.8 2.9-15.2-.1-5.3-1.1-10.4-2.9-15.2zM43.7 72.6c-1.5-3.6-2.5-7.5-2.9-11.6-1.4 3.3-4.3 5.8-7.9 6.5 1.4 3.1 3.3 5.8 5.7 8.1 1.9-.8 3.6-1.8 5.1-3zM63.7 82.1c-2.5-2-4.8-4.3-6.6-7-1.9 2.6-4.1 5-6.6 7 0 .1.1.1.1.1 2.1.5 4.3.8 6.5.8 2.3 0 4.4-.3 6.5-.8 0 0 .1 0 .1-.1zM73.3 61c-.4 4.1-1.4 7.9-2.9 11.6 1.5 1.3 3.2 2.3 5 3.1 2.4-2.3 4.3-5.1 5.7-8.1-3.4-.9-6.4-3.3-7.8-6.6z"/><path class="dhst0" d="M40.6 56.6c0-4.9-3.5-8.9-8.1-9.8-1.2 3-1.9 6.4-1.9 9.8 0 3.5.7 6.8 1.9 9.8 4.6-.8 8.1-4.9 8.1-9.8zM74.6 36.8c-2.7-2.4-5.8-4.2-9.3-5.3 1.8 2.5 3.4 5.3 4.7 8.2 1.4-1.2 3-2.2 4.6-2.9zM70 73.6c-1.3 2.9-2.8 5.6-4.7 8.2 3.5-1.1 6.6-3 9.3-5.3-1.6-.8-3.2-1.8-4.6-2.9z"/><path class="dhst0" d="M40.8 52.3c.4-4.1 1.4-7.9 2.9-11.6-1.5-1.3-3.2-2.3-5.1-3.1-2.4 2.3-4.3 5.1-5.7 8.1 3.6.8 6.5 3.3 7.9 6.6zM64.4 81.3c1.9-2.6 3.5-5.4 4.8-8.4-3.2-2.9-5.6-6.7-6.7-11-.7 4.5-2.4 8.6-4.8 12.3 1.9 2.7 4.1 5.1 6.7 7.1zM50.4 31.1c2.5 2 4.8 4.3 6.6 7 1.9-2.6 4.1-5 6.6-7 0-.1-.1-.1-.1-.1-2.1-.5-4.3-.8-6.5-.8-2.3 0-4.4.3-6.5.8l-.1.1z"/><g><path class="dhst0" d="M114.5 54.3H108v11.2h-3.1v-14h12.7v14h-3.1V54.3zM121.1 65.4v-14h3.1v9.2l7.5-9.2h2.7v14h-3.1v-9.1l-7.5 9.1h-2.7zM137.7 51.4h3.1v5.7l6.1-5.7h4l-6.8 6.3 7.1 7.7h-3.9l-5.4-5.8-1 1v4.8h-3.1v-14zM152.5 53.2c1.3-1.3 3.6-2.1 5.9-2.1 3.7 0 5.8 2.1 5.8 5.8v8.6h-3.1V64c-.8.9-2.3 1.7-4.3 1.7-3.1 0-5.1-1.7-5.1-4.4 0-3.1 2.8-4.5 6.6-4.5 1 0 2.2.2 2.9.4 0-2-.8-3.2-3-3.2-1.5 0-2.7.5-4 1.5l-1.7-2.3zm8.6 7.8v-1.3c-.6-.2-1.6-.4-2.6-.4-2.2 0-3.7.5-3.7 1.9 0 1.1 1 1.8 2.6 1.8 1.9-.1 3.1-1 3.7-2zM180.4 62.2c-1.2 2.3-3.6 3.5-6 3.5-4.5 0-7.6-2.9-7.6-7.3 0-4.2 3-7.3 7.4-7.3 2.9 0 5.1 1.3 6 3.2l-2.3 1.5c-.9-1.3-2-1.8-3.6-1.8-2.5 0-4.3 1.8-4.3 4.5 0 2.5 1.8 4.4 4.7 4.4 1.6 0 2.8-.8 3.5-2l2.2 1.3zM194.7 62.2c-1.2 2.3-3.6 3.5-6 3.5-4.5 0-7.6-2.9-7.6-7.3 0-4.2 3-7.3 7.4-7.3 2.9 0 5.1 1.3 6 3.2l-2.3 1.5c-.9-1.3-2-1.8-3.6-1.8-2.5 0-4.3 1.8-4.3 4.5 0 2.5 1.8 4.4 4.7 4.4 1.6 0 2.8-.8 3.5-2l2.2 1.3zM203 51.1c4.4 0 7.5 3.1 7.5 7.3 0 4.2-3.1 7.3-7.5 7.3s-7.5-3.1-7.5-7.3c0-4.2 3-7.3 7.5-7.3zm0 11.7c2.6 0 4.3-1.7 4.3-4.4s-1.9-4.5-4.3-4.5c-2.5 0-4.3 1.7-4.3 4.5 0 2.5 1.7 4.4 4.3 4.4z"/></g><g><path class="dhst0" d="M111.8 82.4h-6v4.3h-.9v-9.3h.9v4.1h6v-4.1h.9v9.3h-.9v-4.3zM120.9 85.4c-.6 1-1.6 1.4-2.7 1.4-2.2 0-3.7-1.4-3.7-3.6 0-2 1.2-3.6 3.5-3.6 1.8 0 3.2 1.2 3.2 3.1 0 .2 0 .5-.1.7h-5.7c0 1.6 1.2 2.5 2.8 2.5.9 0 1.7-.5 2.1-1.1l.6.6zm-5.6-2.7h4.8c0-1.4-.9-2.3-2.3-2.3-1.4.1-2.3 1-2.5 2.3zM122.1 85.3l.7-.5c.4.7 1.3 1.2 2.4 1.2 1.2 0 2.1-.5 2.1-1.4 0-.7-.6-1.1-1.6-1.1H124v-.8h1.6c.7 0 1.4-.4 1.4-1.2 0-.8-.8-1.2-1.9-1.2-1.1 0-1.7.5-2.1 1l-.7-.4c.4-.6 1.4-1.4 2.9-1.4 1.7 0 2.7.7 2.7 1.8 0 .7-.3 1.2-.9 1.6.9.4 1.2.9 1.2 1.6 0 1.4-1.4 2.2-3 2.2-1.6.2-2.5-.5-3.1-1.4zM129.8 80.6c.6-.6 1.7-1 2.7-1 1.9 0 2.8 1 2.8 2.8v4.3h-.9v-1.1c-.4.7-1.3 1.2-2.6 1.2-1.5 0-2.5-.8-2.5-2.1 0-1.5 1.2-2.1 3.4-2.1.5 0 1.4.1 1.7.2 0-1.4-.4-2.4-2.1-2.4-.8 0-1.5.3-2.1.8l-.4-.6zm4.6 3.9v-.8c-.4-.1-1-.2-1.6-.2-1.6 0-2.6.3-2.6 1.3 0 .8.8 1.3 1.8 1.3 1.4-.1 2.2-1 2.4-1.6zM137.2 79.8h2.8c1.8 0 2.8.4 2.8 1.7 0 .7-.3 1.2-1 1.5.8.2 1.2.8 1.2 1.7 0 1.3-1 1.9-2.9 1.9h-3v-6.8zm.8.8v2.2h2.3c.9 0 1.5-.4 1.5-1.1 0-.9-.9-1-1.9-1H138zm0 3v2.3h2c1.4 0 2.1-.4 2.1-1.2 0-.8-.6-1.1-1.9-1.1H138zM144.7 86.7v-6.9h.9v5.6l4.6-5.6h.8v6.9h-1v-5.6l-4.6 5.6h-.7zM158.9 85.4c-.5.9-1.7 1.4-2.7 1.4-2.2 0-3.7-1.4-3.7-3.6 0-2 1.4-3.6 3.6-3.6 1.1 0 2.2.5 2.7 1.3l-.7.5c-.5-.7-1.1-1-2-1-1.6 0-2.7 1.2-2.7 2.8 0 1.7 1.2 2.8 2.8 2.8.9 0 1.6-.5 2.1-1.1l.6.5zM160.2 86.7v-6.9h.9v5.6l4.6-5.6h.8v6.9h-.9v-5.6l-4.6 5.6h-.8zM168.5 79.8h.8l2.8 3.7 2.8-3.7h.8v6.9h-.9v-5.4l-2.7 3.5-2.8-3.5v5.4h-.9v-6.9zM177.7 79.8h.9v2.3h1.7c2.1 0 2.8 1 2.8 2.3 0 1.2-.7 2.3-2.9 2.3h-2.4v-6.9zm.8 3.1v3h1.5c1.5 0 2-.6 2-1.5s-.6-1.5-2-1.5h-1.5zm5.7-3.1h.9v6.9h-.9v-6.9zM193 85.4c-.6 1-1.6 1.4-2.8 1.4-2.2 0-3.7-1.4-3.7-3.6 0-2 1.2-3.6 3.5-3.6 1.8 0 3.2 1.2 3.2 3.1 0 .2 0 .5-.1.7h-5.7c0 1.6 1.2 2.5 2.8 2.5.9 0 1.7-.5 2.1-1.1l.7.6zm-5.5-2.7h4.8c0-1.4-.9-2.3-2.3-2.3-1.4.1-2.3 1-2.5 2.3zM104.7 97.5h.9v6.1h4.3v-6.1h.9v6.1h1v2.6h-.8v-1.7h-6.2v-7zM119 103.1c-.6 1-1.6 1.4-2.7 1.4-2.2 0-3.7-1.4-3.7-3.6 0-2 1.2-3.6 3.5-3.6 1.8 0 3.2 1.2 3.2 3.1 0 .2 0 .5-.1.7h-5.7c0 1.6 1.2 2.5 2.8 2.5.9 0 1.7-.5 2.1-1.1l.6.6zm-5.6-2.7h4.8c0-1.4-.9-2.3-2.3-2.3s-2.3 1-2.5 2.3zM126.1 101.3h-4.4v3.1h-.9v-6.9h.9v3h4.4v-3h.9v6.9h-.9v-3.1zM128.1 97.5h6.3v.8h-2.7v6.1h-.9v-6.1h-2.7v-.8zM135.6 97.5h.9v1c.6-.9 1.5-1.2 2.5-1.2 2 0 3.3 1.4 3.3 3.5s-1.4 3.7-3.4 3.7c-1.1 0-1.7-.3-2.3-.8v3.3h-.9v-9.5zm.8 2.3v2.7c.5.9 1.4 1.2 2.3 1.2 1.5 0 2.6-1.2 2.6-2.8 0-1.6-.9-2.7-2.4-2.7-1.3-.1-2.2.8-2.5 1.6zM143.8 97.5h.9v2.3h1.7c2.1 0 2.8 1 2.8 2.3 0 1.2-.7 2.3-2.9 2.3h-2.4v-6.9zm.8 3v3h1.5c1.5 0 2-.6 2-1.5s-.6-1.5-2-1.5h-1.5zm5.7-3h.9v6.9h-.9v-6.9zM157.4 97.5h.9v1c.6-.9 1.5-1.2 2.5-1.2 2 0 3.3 1.4 3.3 3.5s-1.4 3.7-3.4 3.7c-1.1 0-1.7-.3-2.3-.8v3.3h-.9v-9.5zm.9 2.3v2.7c.5.9 1.4 1.2 2.3 1.2 1.5 0 2.6-1.2 2.6-2.8 0-1.6-.9-2.7-2.4-2.7-1.4-.1-2.3.8-2.5 1.6zM171.6 103.1c-.6 1-1.6 1.4-2.8 1.4-2.2 0-3.7-1.4-3.7-3.6 0-2 1.2-3.6 3.5-3.6 1.8 0 3.2 1.2 3.2 3.1 0 .2 0 .5-.1.7H166c0 1.6 1.2 2.5 2.8 2.5.9 0 1.7-.5 2.1-1.1l.7.6zm-5.5-2.7h4.8c0-1.4-.9-2.3-2.3-2.3-1.5 0-2.4 1-2.5 2.3zM178.7 101.3h-4.4v3.1h-.9v-6.9h.9v3h4.4v-3h.9v6.9h-.9v-3.1zM180.7 97.5h6.3v.8h-2.7v6.1h-.9v-6.1h-2.7v-.8zM188.2 97.5h4.9v.8H189v6.1h-.9v-6.9zM200 103.1c-.6 1-1.6 1.4-2.7 1.4-2.2 0-3.7-1.4-3.7-3.6 0-2 1.2-3.6 3.5-3.6 1.8 0 3.2 1.2 3.2 3.1 0 .2 0 .5-.1.7h-5.7c0 1.6 1.2 2.5 2.8 2.5.9 0 1.7-.5 2.1-1.1l.6.6zm-5.5-2.7h4.8c0-1.4-.9-2.3-2.3-2.3-1.5 0-2.4 1-2.5 2.3zM207.1 101.3h-4.4v3.1h-.9v-6.9h.9v3h4.4v-3h.9v6.9h-.9v-3.1zM213.2 97.3c2.2 0 3.6 1.5 3.6 3.6s-1.5 3.6-3.6 3.6c-2.2 0-3.6-1.5-3.6-3.6s1.4-3.6 3.6-3.6zm0 6.4c1.6 0 2.7-1.1 2.7-2.8 0-1.6-1.2-2.8-2.7-2.8-1.6 0-2.7 1.1-2.7 2.8 0 1.6 1.1 2.8 2.7 2.8zM218.8 100.3h3.2v.8h-3.2v-.8zM103.9 121.2h.7c.8-1.1 1-2.7 1-4.6v-1.5h5.1v6.1h1v2.6h-.8V122h-6.1v1.7h-.8v-2.5zm2.5-4.5c0 1.7-.2 3.4-.8 4.4h4.2v-5.3h-3.4v.9zM112.9 122v-6.9h.9v5.6l4.6-5.6h.8v6.9h-.9v-5.6l-4.6 5.6h-.8zM121.1 115.9c.6-.6 1.7-1 2.7-1 1.9 0 2.8 1 2.8 2.8v4.3h-.9v-1.1c-.4.7-1.3 1.2-2.6 1.2-1.5 0-2.5-.8-2.5-2.1 0-1.5 1.2-2.1 3.4-2.1.5 0 1.4.1 1.7.2 0-1.4-.4-2.4-2.1-2.4-.8 0-1.5.3-2.1.8l-.4-.6zm4.6 3.9v-.8c-.4-.1-1-.2-1.6-.2-1.6 0-2.6.3-2.6 1.3 0 .8.8 1.3 1.8 1.3 1.3-.1 2.2-1 2.4-1.6zM128.5 115.1h4.9v.8h-4.1v6.1h-.9v-6.9zM139.8 118.9h-4.4v3.1h-.9v-6.9h.9v3h4.4v-3h.9v6.9h-.9v-3.1zM145.9 114.9c2.2 0 3.6 1.5 3.6 3.6s-1.5 3.6-3.6 3.6c-2.2 0-3.6-1.5-3.6-3.6s1.4-3.6 3.6-3.6zm0 6.4c1.6 0 2.7-1.1 2.7-2.8 0-1.6-1.2-2.8-2.7-2.8-1.6 0-2.7 1.1-2.7 2.8 0 1.7 1.1 2.8 2.7 2.8zM157.1 120.7c-.5.9-1.7 1.4-2.7 1.4-2.2 0-3.7-1.4-3.7-3.6 0-2 1.4-3.6 3.6-3.6 1.1 0 2.2.5 2.7 1.3l-.7.5c-.5-.7-1.1-1-2-1-1.6 0-2.7 1.2-2.7 2.8 0 1.7 1.2 2.8 2.8 2.8.9 0 1.6-.5 2.1-1.1l.6.5zM157.5 115.1h6.3v.8h-2.7v6.1h-.9v-6.1h-2.7v-.8zM165 122v-6.9h.9v5.6l4.6-5.6h.8v6.9h-.9v-5.6l-4.6 5.6h-.8zM173.3 115.1h.9v3.3l3.8-3.3h1.2l-3.7 3.2 3.9 3.7h-1.2l-3.4-3.2-.6.6v2.6h-.9v-6.9zM180.5 122v-6.9h.9v5.6l4.6-5.6h.8v6.9h-.9v-5.6l-4.6 5.6h-.8z"/></g></svg><svg version="1.1" id="logo-diagnostic-white+-01" x="334" y="98" viewBox="-2 -2 196 98" xml:space="preserve" width="196" height="98" xmlns="http://www.w3.org/2000/svg"><style>.dist0{fill:#fff}</style><path class="dist0" d="M14.6 41.8c4.1-3.8 6.7-9.2 6.7-15.2s-2.6-11.4-6.7-15.2c-1.8 4.7-2.9 9.8-2.9 15.2 0 5.4 1 10.5 2.9 15.2zM18.8 51.8c-1.8-2.5-3.4-5.3-4.7-8.2-1.4 1.1-3 2.1-4.6 2.8 2.7 2.4 5.8 4.2 9.3 5.4zM31.8 26.6c0-6.1-1.7-11.7-4.8-16.5-3 4.8-4.8 10.5-4.8 16.5 0 6.1 1.7 11.7 4.8 16.5 3.1-4.7 4.8-10.4 4.8-16.5z"/><path class="dist0" d="M26.4 44.2c-2.4-3.6-4-7.8-4.8-12.3-1.1 4.3-3.4 8.1-6.7 11 1.3 3 2.9 5.8 4.8 8.4 2.6-2 4.9-4.4 6.7-7.1zM40.5 10.7c1.5 3.6 2.4 7.5 2.9 11.6 1.4-3.3 4.3-5.8 7.9-6.5-1.4-3.1-3.3-5.8-5.7-8.1-1.9.7-3.6 1.7-5.1 3z"/><path class="dist0" d="M43.5 26.6c0 4.9 3.5 8.9 8.1 9.8 1.2-3 1.9-6.4 1.9-9.8 0-3.5-.7-6.8-1.9-9.8-4.6.9-8.1 4.9-8.1 9.8zM27.7 9.1c2.4 3.6 4 7.8 4.8 12.2 1.1-4.3 3.4-8.1 6.7-11-1.3-3-2.9-5.8-4.8-8.4-2.6 2.1-4.8 4.5-6.7 7.2zM21.7 21.3c.7-4.5 2.4-8.6 4.8-12.3-1.9-2.6-4.2-5-6.7-7-1.9 2.6-3.5 5.4-4.8 8.4 3.2 2.8 5.6 6.6 6.7 10.9zM14.1 9.6c1.3-2.9 2.8-5.6 4.7-8.2-3.5 1.1-6.6 3-9.3 5.3 1.7.8 3.2 1.8 4.6 2.9z"/><path class="dist0" d="M39.6 11.4c-4.1 3.8-6.7 9.2-6.7 15.2s2.6 11.4 6.7 15.2c1.8-4.7 2.9-9.8 2.9-15.2-.1-5.3-1.1-10.5-2.9-15.2zM13.7 42.6c-1.5-3.6-2.5-7.5-2.9-11.6-1.4 3.3-4.3 5.8-7.9 6.5 1.4 3.1 3.3 5.8 5.7 8.1 1.9-.8 3.6-1.8 5.1-3zM33.7 52.1c-2.5-2-4.8-4.3-6.6-7-1.9 2.6-4.1 5-6.6 7 0 .1.1.1.1.1 2.1.5 4.3.8 6.5.8 2.3 0 4.4-.3 6.5-.8 0 0 .1 0 .1-.1zM43.3 31c-.4 4.1-1.4 7.9-2.9 11.6 1.5 1.3 3.2 2.3 5 3.1 2.4-2.3 4.3-5.1 5.7-8.1-3.4-.9-6.4-3.3-7.8-6.6z"/><path class="dist0" d="M10.6 26.6c0-4.9-3.5-8.9-8.1-9.8-1.2 3-1.9 6.4-1.9 9.8 0 3.5.7 6.8 1.9 9.8 4.6-.8 8.1-4.9 8.1-9.8zM44.6 6.8c-2.7-2.4-5.8-4.2-9.3-5.3C37.2 4 38.8 6.7 40 9.6c1.4-1.1 3-2.1 4.6-2.8zM40 43.6c-1.3 2.9-2.8 5.6-4.7 8.2 3.5-1.1 6.6-3 9.3-5.3-1.6-.8-3.2-1.8-4.6-2.9z"/><path class="dist0" d="M10.8 22.3c.4-4.1 1.4-7.9 2.9-11.6-1.5-1.3-3.2-2.3-5.1-3.1-2.4 2.3-4.3 5.1-5.7 8.1 3.6.8 6.5 3.3 7.9 6.6zM34.4 51.3c1.9-2.6 3.5-5.4 4.8-8.4-3.2-2.9-5.6-6.7-6.7-11-.7 4.5-2.4 8.6-4.8 12.3 1.9 2.7 4.1 5.1 6.7 7.1zM20.4 1.1c2.5 2 4.8 4.3 6.6 7 1.9-2.6 4.1-5 6.6-7 0-.1-.1-.1-.1-.1C31.4.5 29.2.2 27 .2c-2.3 0-4.4.3-6.5.8l-.1.1z"/><g><path class="dist0" d="M84.5 24.3H78v11.2h-3.1v-14h12.7v14h-3.1V24.3zM91.1 35.4v-14h3.1v9.2l7.5-9.2h2.7v14h-3.1v-9.1l-7.5 9.1h-2.7zM107.7 21.4h3.1v5.7l6.1-5.7h4l-6.8 6.3 7.1 7.7h-3.9l-5.4-5.8-1 1v4.8h-3.1v-14zM122.5 23.2c1.3-1.3 3.6-2.1 5.9-2.1 3.7 0 5.8 2.1 5.8 5.8v8.6h-3.1V34c-.8.9-2.3 1.7-4.3 1.7-3.1 0-5.1-1.7-5.1-4.4 0-3.1 2.8-4.5 6.6-4.5 1 0 2.2.2 2.9.4 0-2-.8-3.2-3-3.2-1.5 0-2.7.5-4 1.5l-1.7-2.3zm8.6 7.8v-1.3c-.6-.2-1.6-.4-2.6-.4-2.2 0-3.7.5-3.7 1.9 0 1.1 1 1.8 2.6 1.8 1.9-.1 3.1-1 3.7-2zM150.4 32.2c-1.2 2.3-3.6 3.5-6 3.5-4.5 0-7.6-2.9-7.6-7.3 0-4.2 3-7.3 7.4-7.3 2.9 0 5.1 1.3 6 3.2l-2.3 1.5c-.9-1.3-2-1.8-3.6-1.8-2.5 0-4.3 1.8-4.3 4.5 0 2.5 1.8 4.4 4.7 4.4 1.6 0 2.8-.8 3.5-2l2.2 1.3zM164.7 32.2c-1.2 2.3-3.6 3.5-6 3.5-4.5 0-7.6-2.9-7.6-7.3 0-4.2 3-7.3 7.4-7.3 2.9 0 5.1 1.3 6 3.2l-2.3 1.5c-.9-1.3-2-1.8-3.6-1.8-2.5 0-4.3 1.8-4.3 4.5 0 2.5 1.8 4.4 4.7 4.4 1.6 0 2.8-.8 3.5-2l2.2 1.3zM173 21.1c4.4 0 7.5 3.1 7.5 7.3 0 4.2-3.1 7.3-7.5 7.3s-7.5-3.1-7.5-7.3c0-4.2 3-7.3 7.5-7.3zm0 11.7c2.6 0 4.3-1.7 4.3-4.4s-1.9-4.5-4.3-4.5c-2.5 0-4.3 1.7-4.3 4.5 0 2.5 1.7 4.4 4.3 4.4z"/></g><g><path class="dist0" d="M81.8 52.4h-6v4.3h-.9v-9.3h.9v4.1h6v-4.1h.9v9.3h-.9v-4.3zM90.9 55.4c-.6 1-1.6 1.4-2.7 1.4-2.2 0-3.7-1.4-3.7-3.6 0-2 1.2-3.6 3.5-3.6 1.8 0 3.2 1.2 3.2 3.1 0 .2 0 .5-.1.7h-5.7c0 1.6 1.2 2.5 2.8 2.5.9 0 1.7-.5 2.1-1.1l.6.6zm-5.6-2.7h4.8c0-1.4-.9-2.3-2.3-2.3-1.4.1-2.3 1-2.5 2.3zM92.1 55.3l.7-.5c.4.7 1.3 1.2 2.4 1.2 1.2 0 2.1-.5 2.1-1.4 0-.7-.6-1.1-1.6-1.1H94v-.8h1.6c.7 0 1.4-.4 1.4-1.2 0-.8-.8-1.2-1.9-1.2-1.1 0-1.7.5-2.1 1l-.7-.3c.4-.6 1.4-1.4 2.9-1.4 1.7 0 2.7.7 2.7 1.8 0 .7-.3 1.2-.9 1.6.9.4 1.2.9 1.2 1.6 0 1.4-1.4 2.2-3 2.2-1.6.1-2.5-.6-3.1-1.5zM99.8 50.6c.6-.6 1.7-1 2.7-1 1.9 0 2.8 1 2.8 2.8v4.3h-.9v-1.1c-.4.7-1.3 1.2-2.6 1.2-1.5 0-2.5-.8-2.5-2.1 0-1.5 1.2-2.1 3.4-2.1.5 0 1.4.1 1.7.2 0-1.4-.4-2.4-2.1-2.4-.8 0-1.5.3-2.1.8l-.4-.6zm4.6 3.9v-.8c-.4-.1-1-.2-1.6-.2-1.6 0-2.6.3-2.6 1.3 0 .8.8 1.3 1.8 1.3 1.4-.1 2.2-1 2.4-1.6zM107.2 49.8h2.8c1.8 0 2.8.4 2.8 1.7 0 .7-.3 1.2-1 1.5.8.2 1.2.8 1.2 1.7 0 1.3-1 1.9-2.9 1.9h-3v-6.8zm.8.8v2.2h2.3c.9 0 1.5-.4 1.5-1.1 0-.9-.9-1-1.9-1H108zm0 3v2.3h2c1.4 0 2.1-.4 2.1-1.2 0-.8-.6-1.1-1.9-1.1H108zM114.7 56.7v-6.9h.9v5.6l4.6-5.6h.8v6.9h-1v-5.6l-4.6 5.6h-.7zM128.9 55.4c-.5.9-1.7 1.4-2.7 1.4-2.2 0-3.7-1.4-3.7-3.6 0-2 1.4-3.6 3.6-3.6 1.1 0 2.2.5 2.7 1.3l-.7.5c-.5-.7-1.1-1-2-1-1.6 0-2.7 1.2-2.7 2.8 0 1.7 1.2 2.8 2.8 2.8.9 0 1.6-.5 2.1-1.1l.6.5zM130.2 56.7v-6.9h.9v5.6l4.6-5.6h.8v6.9h-.9v-5.6l-4.6 5.6h-.8zM138.5 49.8h.8l2.8 3.7 2.8-3.7h.8v6.9h-.9v-5.4l-2.7 3.5-2.8-3.5v5.4h-.9v-6.9zM147.7 49.8h.9v2.3h1.7c2.1 0 2.8 1 2.8 2.3 0 1.2-.7 2.3-2.9 2.3h-2.4v-6.9zm.8 3.1v3h1.5c1.5 0 2-.6 2-1.5s-.6-1.5-2-1.5h-1.5zm5.7-3.1h.9v6.9h-.9v-6.9zM163 55.4c-.6 1-1.6 1.4-2.8 1.4-2.2 0-3.7-1.4-3.7-3.6 0-2 1.2-3.6 3.5-3.6 1.8 0 3.2 1.2 3.2 3.1 0 .2 0 .5-.1.7h-5.7c0 1.6 1.2 2.5 2.8 2.5.9 0 1.7-.5 2.1-1.1l.7.6zm-5.5-2.7h4.8c0-1.4-.9-2.3-2.3-2.3-1.4.1-2.3 1-2.5 2.3zM74.7 67.5h.9v6.1h4.3v-6.1h.9v6.1h1v2.6H81v-1.7h-6.2v-7zM89 73c-.6 1-1.6 1.4-2.7 1.4-2.2 0-3.7-1.4-3.7-3.6 0-2 1.2-3.6 3.5-3.6 1.8 0 3.2 1.2 3.2 3.1 0 .2 0 .5-.1.7h-5.7c0 1.6 1.2 2.5 2.8 2.5.9 0 1.7-.5 2.1-1.1l.6.6zm-5.6-2.6h4.8c0-1.4-.9-2.3-2.3-2.3s-2.3 1-2.5 2.3zM96.1 71.3h-4.4v3.1h-.9v-6.9h.9v3h4.4v-3h.9v6.9h-.9v-3.1zM98.1 67.5h6.3v.8h-2.7v6.1h-.9v-6.1h-2.7v-.8zM105.6 67.5h.9v1c.6-.9 1.5-1.2 2.5-1.2 2 0 3.3 1.4 3.3 3.5s-1.4 3.7-3.4 3.7c-1.1 0-1.7-.3-2.3-.8V77h-.9v-9.5zm.8 2.3v2.7c.5.9 1.4 1.2 2.3 1.2 1.5 0 2.6-1.2 2.6-2.8 0-1.6-.9-2.7-2.4-2.7-1.3-.1-2.2.8-2.5 1.6zM113.8 67.5h.9v2.3h1.7c2.1 0 2.8 1 2.8 2.3 0 1.2-.7 2.3-2.9 2.3h-2.4v-6.9zm.8 3v3h1.5c1.5 0 2-.6 2-1.5s-.6-1.5-2-1.5h-1.5zm5.7-3h.9v6.9h-.9v-6.9zM127.4 67.5h.9v1c.6-.9 1.5-1.2 2.5-1.2 2 0 3.3 1.4 3.3 3.5s-1.4 3.7-3.4 3.7c-1.1 0-1.7-.3-2.3-.8V77h-.9v-9.5zm.9 2.3v2.7c.5.9 1.4 1.2 2.3 1.2 1.5 0 2.6-1.2 2.6-2.8 0-1.6-.9-2.7-2.4-2.7-1.4-.1-2.3.8-2.5 1.6zM141.6 73c-.6 1-1.6 1.4-2.8 1.4-2.2 0-3.7-1.4-3.7-3.6 0-2 1.2-3.6 3.5-3.6 1.8 0 3.2 1.2 3.2 3.1 0 .2 0 .5-.1.7H136c0 1.6 1.2 2.5 2.8 2.5.9 0 1.7-.5 2.1-1.1l.7.6zm-5.5-2.6h4.8c0-1.4-.9-2.3-2.3-2.3-1.5 0-2.4 1-2.5 2.3zM148.7 71.3h-4.4v3.1h-.9v-6.9h.9v3h4.4v-3h.9v6.9h-.9v-3.1zM150.7 67.5h6.3v.8h-2.7v6.1h-.9v-6.1h-2.7v-.8zM158.2 67.5h4.9v.8H159v6.1h-.9v-6.9zM170 73c-.6 1-1.6 1.4-2.7 1.4-2.2 0-3.7-1.4-3.7-3.6 0-2 1.2-3.6 3.5-3.6 1.8 0 3.2 1.2 3.2 3.1 0 .2 0 .5-.1.7h-5.7c0 1.6 1.2 2.5 2.8 2.5.9 0 1.7-.5 2.1-1.1l.6.6zm-5.5-2.6h4.8c0-1.4-.9-2.3-2.3-2.3-1.5 0-2.4 1-2.5 2.3zM177.1 71.3h-4.4v3.1h-.9v-6.9h.9v3h4.4v-3h.9v6.9h-.9v-3.1zM183.2 67.3c2.2 0 3.6 1.5 3.6 3.6s-1.5 3.6-3.6 3.6c-2.2 0-3.6-1.5-3.6-3.6s1.4-3.6 3.6-3.6zm0 6.4c1.6 0 2.7-1.1 2.7-2.8 0-1.6-1.2-2.8-2.7-2.8-1.6 0-2.7 1.1-2.7 2.8 0 1.6 1.1 2.8 2.7 2.8zM188.8 70.3h3.2v.8h-3.2v-.8zM73.9 91.2h.7c.8-1.1 1-2.7 1-4.6v-1.5h5.1v6.1h1v2.6h-.8V92h-6.1v1.7H74v-2.5zm2.5-4.5c0 1.7-.2 3.4-.8 4.4h4.2v-5.3h-3.4v.9zM82.8 92v-6.9h.9v5.6l4.6-5.6h.8V92h-.9v-5.6L83.7 92h-.9zM91.1 85.9c.6-.6 1.7-1 2.7-1 1.9 0 2.8 1 2.8 2.8V92h-.9v-1.1c-.4.7-1.3 1.2-2.6 1.2-1.5 0-2.5-.8-2.5-2.1 0-1.5 1.2-2.1 3.4-2.1.5 0 1.4.1 1.7.2 0-1.4-.4-2.4-2.1-2.4-.8 0-1.5.3-2.1.8l-.4-.6zm4.6 3.9V89c-.4-.1-1-.2-1.6-.2-1.6 0-2.6.3-2.6 1.3 0 .8.8 1.3 1.8 1.3 1.3-.1 2.2-1 2.4-1.6zM98.5 85.1h4.9v.8h-4.1V92h-.9v-6.9zM109.8 88.9h-4.4V92h-.9v-6.9h.9v3h4.4v-3h.9V92h-.9v-3.1zM115.9 84.9c2.2 0 3.6 1.5 3.6 3.6s-1.5 3.6-3.6 3.6c-2.2 0-3.6-1.5-3.6-3.6s1.4-3.6 3.6-3.6zm0 6.4c1.6 0 2.7-1.1 2.7-2.8 0-1.6-1.2-2.8-2.7-2.8-1.6 0-2.7 1.1-2.7 2.8 0 1.7 1.1 2.8 2.7 2.8zM127.1 90.7c-.5.9-1.7 1.4-2.7 1.4-2.2 0-3.7-1.4-3.7-3.6 0-2 1.4-3.6 3.6-3.6 1.1 0 2.2.5 2.7 1.3l-.7.5c-.5-.7-1.1-1-2-1-1.6 0-2.7 1.2-2.7 2.8 0 1.7 1.2 2.8 2.8 2.8.9 0 1.6-.5 2.1-1.1l.6.5zM127.5 85.1h6.3v.8h-2.7V92h-.9v-6.1h-2.7v-.8zM135 92v-6.9h.9v5.6l4.6-5.6h.8V92h-.9v-5.6l-4.6 5.6h-.8zM143.3 85.1h.9v3.3l3.8-3.3h1.2l-3.7 3.2 3.9 3.7h-1.2l-3.4-3.2-.6.6V92h-.9v-6.9zM150.5 92v-6.9h.9v5.6l4.6-5.6h.8V92h-.9v-5.6l-4.6 5.6h-.8z"/></g></svg><svg id="logo-diagnostic-white-small-02" data-name="Слой 1" viewBox="-2 -2 122.15 40.32" width="122.15" height="40.32" x="334" y="237" xmlns="http://www.w3.org/2000/svg"><defs><style>.djcls-1{fill:#fff}</style></defs><path class="djcls-1" d="M52.4 16.6h-4.51v7.68h-2.11v-9.65h8.73v9.65H52.4V16.6zm4.46 7.68v-9.65H59v6.29l5.1-6.29h1.8v9.65h-2.1V18l-5.11 6.27zm11.39-9.65h2.11v3.92l4.17-3.92h2.75L72.6 19l4.85 5.29h-2.7l-3.68-4-.71.69v3.28h-2.11v-9.63zm16 6.61v-.93a6 6 0 00-1.75-.26c-1.52 0-2.54.32-2.54 1.28 0 .76.7 1.23 1.78 1.23a2.91 2.91 0 002.51-1.32zm-5.86-5.4a5.87 5.87 0 014-1.43c2.54 0 3.94 1.44 3.94 4v5.9h-2.04v-1.08a3.9 3.9 0 01-3 1.17c-2.11 0-3.49-1.19-3.49-3 0-2.15 1.94-3.06 4.49-3.06a7.31 7.31 0 012 .26c0-1.39-.52-2.17-2.07-2.17a4.21 4.21 0 00-2.76 1zm19.11 6.23a4.58 4.58 0 01-4.13 2.38 4.81 4.81 0 01-5.18-5 4.86 4.86 0 015.07-5 4.43 4.43 0 014.13 2.19l-1.58 1a2.76 2.76 0 00-2.46-1.27 2.9 2.9 0 00-3 3.07 3 3 0 003.21 3A2.8 2.8 0 0096 21.11zm9.8 0a4.56 4.56 0 01-4.12 2.38 4.81 4.81 0 01-5.18-5 4.86 4.86 0 015.07-5 4.41 4.41 0 014.12 2.19l-1.57 1a2.78 2.78 0 00-2.46-1.27 2.9 2.9 0 00-3 3.07 3 3 0 003.2 3 2.79 2.79 0 002.42-1.37zm5.65.41a2.84 2.84 0 003-3 2.9 2.9 0 00-3-3.07 2.87 2.87 0 00-3 3.07 2.89 2.89 0 003 3zm0-8.07a4.9 4.9 0 015.16 5 5.16 5.16 0 01-10.31 0 4.88 4.88 0 015.2-5zM9.59 28.56a14.14 14.14 0 000-20.8 28.57 28.57 0 000 20.8zM12.48 35.41a29.51 29.51 0 01-3.2-5.6 15 15 0 01-3.16 1.94 18.25 18.25 0 006.36 3.66z"/><path class="djcls-1" d="M21.42 18.16a21.31 21.31 0 00-3.26-11.34 21.35 21.35 0 000 22.68 21.31 21.31 0 003.26-11.34z"/><path class="djcls-1" d="M17.71 30.2a22.16 22.16 0 01-3.26-8.4 14.88 14.88 0 01-4.57 7.51 28.85 28.85 0 003.27 5.75 21.7 21.7 0 004.56-4.86zM27.34 7.23a28.94 28.94 0 011.95 8 7.67 7.67 0 015.42-4.48 18 18 0 00-3.91-5.62 13.85 13.85 0 00-3.46 2.1z"/><path class="djcls-1" d="M29.45 18.16A6.89 6.89 0 0035 24.91a18.17 18.17 0 000-13.5 6.89 6.89 0 00-5.55 6.75zM18.61 6.12a22.16 22.16 0 013.26 8.4A14.88 14.88 0 0126.44 7a28.85 28.85 0 00-3.27-5.75 21.49 21.49 0 00-4.56 4.87zM14.45 14.52a22.16 22.16 0 013.26-8.4 21.49 21.49 0 00-4.56-4.86A28.85 28.85 0 009.88 7a14.88 14.88 0 014.57 7.52zM9.28 6.51a29.51 29.51 0 013.2-5.6 18.25 18.25 0 00-6.36 3.66 14.82 14.82 0 013.16 1.94z"/><path class="djcls-1" d="M26.73 7.76a14.14 14.14 0 000 20.8 28.57 28.57 0 000-20.8zM9 29.09a29 29 0 01-2-7.95 7.67 7.67 0 01-5.42 4.48 18 18 0 003.91 5.57A13.91 13.91 0 009 29.09zM22.72 35.66a22.53 22.53 0 01-4.56-4.79 22.28 22.28 0 01-4.56 4.79l.09.1a18.12 18.12 0 008.94 0zM29.29 21.14a28.94 28.94 0 01-1.95 8 13.85 13.85 0 003.46 2.1 18 18 0 003.91-5.57 7.67 7.67 0 01-5.42-4.53z"/><path class="djcls-1" d="M6.88 18.16a6.9 6.9 0 00-5.58-6.75 18.17 18.17 0 000 13.5 6.9 6.9 0 005.58-6.75zM30.2 4.57A18.2 18.2 0 0023.85.91 30 30 0 0127 6.51a14.82 14.82 0 013.2-1.94zM27 29.81a30 30 0 01-3.19 5.6 18.2 18.2 0 006.35-3.66A15.23 15.23 0 0127 29.81z"/><path class="djcls-1" d="M7 15.18a29 29 0 012-7.95 13.91 13.91 0 00-3.47-2.1 18 18 0 00-3.92 5.57A7.67 7.67 0 017 15.18zM23.17 35.06a28.85 28.85 0 003.27-5.75 14.88 14.88 0 01-4.57-7.51 22.16 22.16 0 01-3.26 8.4 21.7 21.7 0 004.56 4.86zM13.6.66a22.28 22.28 0 014.56 4.79A22.53 22.53 0 0122.72.66l-.09-.1a18.12 18.12 0 00-8.94 0z"/></svg><svg width="118" height="54" viewBox="-2 -2 118 54" id="logo-lab-full" y="299" xmlns="http://www.w3.org/2000/svg"><g fill="none" fillRule="evenodd"><path fill="#1A1919" d="M20.105 14.473h-6.428v10.461h-3.004v-13.14h12.435v13.14h-3.003V14.473m6.48 10.461v-13.14h3.003v8.566l7.271-8.566h2.608v13.14h-3.003v-8.541l-7.27 8.541h-2.61m16.22-13.14h3.003v5.332l5.928-5.332h3.925l-6.665 5.938 6.902 7.202H52.05l-5.243-5.408-1 .935v4.473h-3.004v-13.14m22.951 8.996v-1.264c-.553-.176-1.528-.353-2.502-.353-2.16 0-3.61.43-3.61 1.743 0 1.036 1.002 1.668 2.53 1.668 1.817 0 2.977-.91 3.582-1.794zm-8.35-7.353c1.29-1.213 3.503-1.946 5.743-1.946 3.609 0 5.61 1.97 5.61 5.407v8.036h-3.003v-1.44c-.816.859-2.212 1.592-4.24 1.592-3.004 0-4.98-1.618-4.98-4.145 0-2.93 2.766-4.169 6.402-4.169.974 0 2.186.152 2.818.354.027-1.895-.737-2.957-2.95-2.957-1.502 0-2.608.43-3.925 1.39l-1.476-2.122zm27.147 8.49c-1.133 2.123-3.504 3.234-5.875 3.234-4.4 0-7.376-2.678-7.376-6.822 0-3.892 2.898-6.848 7.218-6.848 2.819 0 4.98 1.238 5.875 2.982l-2.24 1.415c-.921-1.188-1.949-1.719-3.503-1.719-2.477 0-4.242 1.693-4.242 4.17 0 2.375 1.792 4.144 4.558 4.144 1.554 0 2.687-.758 3.451-1.87l2.134 1.314m13.944 0c-1.133 2.123-3.504 3.234-5.875 3.234-4.4 0-7.376-2.678-7.376-6.822 0-3.892 2.897-6.848 7.218-6.848 2.819 0 4.979 1.238 5.875 2.982l-2.24 1.415c-.922-1.188-1.95-1.719-3.504-1.719-2.476 0-4.24 1.693-4.24 4.17 0 2.375 1.79 4.144 4.557 4.144 1.554 0 2.687-.758 3.45-1.87l2.135 1.314m8.044.556c2.503 0 4.242-1.617 4.242-4.144 0-2.552-1.87-4.17-4.242-4.17-2.397 0-4.215 1.592-4.215 4.17 0 2.375 1.713 4.144 4.215 4.144zm0-10.992c4.32 0 7.35 2.88 7.35 6.848 0 3.942-3.03 6.822-7.35 6.822-4.267 0-7.323-2.88-7.323-6.822 0-3.968 2.977-6.848 7.323-6.848zM0 49.775h3.043V.138H0z"/><path fill="#DE4A6A" d="M10.673 49.773h2.99V32.227h-2.99zm18.603-4.222v-1.284c-.865-.288-2.848-.497-3.82-.497-2.679 0-3.66.86-3.66 1.843 0 .96.672 1.817 2.889 1.817 1.571 0 3.871-.634 4.591-1.879zm-9.823-7.348c1.516-1.09 3.937-1.836 6.17-1.836 3.6 0 6.594 1.762 6.594 5.71v7.696h-2.94v-1.81c-1.109 1.228-3.175 1.961-5.038 1.961-3.145 0-5.543-1.792-5.543-3.98 0-2.922 2.64-4.31 5.962-4.31 1.971 0 3.673.383 4.618.678 0-2.491-2.374-3.272-4.14-3.272-1.69 0-2.78.394-4.181 1.215l-1.502-2.052zm20.388 2.532v5.576c.8.632 2.138 1.12 3.746 1.119 2.127-.003 4.38-1.215 4.38-4.389 0-2.41-1.8-3.984-4.157-3.984-2.17 0-3.08.825-3.969 1.678zm-2.891-8.508h2.989v5.627c1.16-.798 2.19-1.487 4.483-1.487 3.877 0 6.632 2.537 6.632 6.418 0 4.335-3.22 7.215-7.237 7.215-2.417 0-4.695-.642-6.867-2.277V32.227z"/></g></svg><svg width="90" height="42" viewBox="-2 -2 90 42" id="logo-lab-small" y="353" xmlns="http://www.w3.org/2000/svg"><g fill="none"><path d="M15.698 11.21H10.94v7.741H8.718V9.228h9.202v9.723h-2.222V11.21zm4.795 7.741V9.228h2.222v6.339l5.38-6.34h1.93v9.724h-2.222v-6.32l-5.38 6.32h-1.93zm12.002-9.723h2.222v3.945l4.387-3.945h2.904l-4.932 4.394 5.108 5.33h-2.846l-3.88-4.003-.74.692v3.31h-2.223V9.228zm16.984 6.656v-.935c-.41-.13-1.13-.261-1.852-.261-1.599 0-2.67.318-2.67 1.29 0 .767.74 1.234 1.87 1.234 1.346 0 2.204-.673 2.652-1.328zm-6.18-5.44c.955-.898 2.593-1.44 4.25-1.44 2.671 0 4.153 1.458 4.153 4v5.947h-2.223v-1.066c-.604.636-1.637 1.178-3.138 1.178-2.223 0-3.685-1.196-3.685-3.066 0-2.17 2.047-3.086 4.737-3.086.721 0 1.618.113 2.086.262.02-1.402-.546-2.188-2.183-2.188-1.111 0-1.93.318-2.905 1.029l-1.092-1.57zm20.09 6.282c-.839 1.57-2.593 2.393-4.348 2.393-3.255 0-5.458-1.982-5.458-5.048 0-2.88 2.144-5.068 5.341-5.068 2.086 0 3.685.917 4.348 2.207l-1.658 1.047c-.682-.879-1.442-1.272-2.592-1.272-1.833 0-3.14 1.253-3.14 3.086 0 1.757 1.327 3.066 3.374 3.066 1.15 0 1.988-.56 2.553-1.383l1.58.972zm10.318 0c-.839 1.57-2.593 2.393-4.348 2.393-3.255 0-5.458-1.982-5.458-5.048 0-2.88 2.144-5.068 5.341-5.068 2.086 0 3.685.917 4.348 2.207l-1.657 1.047c-.683-.879-1.443-1.272-2.593-1.272-1.833 0-3.139 1.253-3.139 3.086 0 1.757 1.326 3.066 3.373 3.066 1.15 0 1.988-.56 2.554-1.383l1.579.972zm5.953.411c1.852 0 3.139-1.196 3.139-3.066 0-1.889-1.385-3.086-3.14-3.086-1.773 0-3.118 1.178-3.118 3.086 0 1.757 1.267 3.066 3.119 3.066zm0-8.134c3.197 0 5.439 2.132 5.439 5.068 0 2.917-2.242 5.048-5.44 5.048-3.157 0-5.419-2.131-5.419-5.048 0-2.936 2.203-5.068 5.42-5.068zM.82 37.333h2.252V.604H.82v36.73z" fill="#1A1919"/><path d="M8.718 37.332h2.212V24.348H8.718v12.984zm13.766-3.124v-.95c-.64-.213-2.107-.368-2.826-.368-1.983 0-2.71.637-2.71 1.364 0 .71.498 1.344 2.139 1.344 1.163 0 2.865-.469 3.397-1.39zm-7.268-5.438c1.121-.806 2.913-1.358 4.565-1.358 2.664 0 4.88 1.303 4.88 4.224v5.696h-2.177v-1.34c-.82.91-2.349 1.452-3.727 1.452-2.328 0-4.102-1.327-4.102-2.945 0-2.163 1.953-3.19 4.412-3.19 1.459 0 2.718.284 3.417.502 0-1.843-1.756-2.421-3.063-2.421-1.251 0-2.057.291-3.095.899l-1.11-1.519zm15.086 1.874v4.126c.592.468 1.582.83 2.772.828 1.575-.002 3.242-.899 3.242-3.248 0-1.784-1.332-2.948-3.077-2.948-1.606 0-2.279.61-2.937 1.242zm-2.14-6.296h2.213v4.164c.859-.59 1.62-1.1 3.317-1.1 2.869 0 4.908 1.877 4.908 4.749 0 3.208-2.383 5.339-5.356 5.339-1.788 0-3.474-.475-5.081-1.685V24.348z" fill="#DE4A6A"/></g></svg><svg version="1.1" id="placemark-diagnostic-active" x="274" y="395" viewBox="-2 -2 34 45" xml:space="preserve" width="34" height="45" xmlns="http://www.w3.org/2000/svg"><style/><g fillRule="evenodd" clip-rule="evenodd"><path d="M25.2 25.9L11 41l1.5-11.4C5.4 28.4 0 22.3 0 14.9 0 6.7 6.7 0 14.9 0h.2C23.3 0 30 6.7 30 14.9c0 4.2-1.8 8.2-4.8 11z" fill="#931680"/><path d="M15 8.7c3.5 0 6.3 2.8 6.3 6.2 0 3.4-2.8 6.2-6.2 6.2H15c-3.4 0-6.2-2.8-6.2-6.2 0-3.4 2.7-6.2 6.2-6.2z" fill="#fff"/></g></svg><svg width="34" height="45" viewBox="-2 -2 34 45" id="placemark-diagnostic-active-old" x="308" y="395" xmlns="http://www.w3.org/2000/svg"><defs><linearGradient x1="0%" y1="48.843%" x2="99.186%" y2="48.843%" id="dna"><stop stop-color="#9B1DAA" offset="0%"/><stop stop-color="#BE3481" offset="50.371%"/><stop stop-color="#F24973" offset="100%"/></linearGradient></defs><g fill="none" fillRule="evenodd"><path d="M25.157 25.921L10.955 41l1.451-11.373C5.363 28.433 0 22.302 0 14.92 0 6.679 6.68 0 14.919 0h.162C23.321 0 30 6.68 30 14.919a14.88 14.88 0 01-4.843 11.002z" fill="url(#dna)"/><rect fill="#FFF" x="8.75" y="8.697" width="12.5" height="12.424" rx="6.212"/></g></svg><svg width="48" height="49" fill="none" viewBox="-2 -2 48 49" id="placemark-diagnostic-normal" x="132" y="395" xmlns="http://www.w3.org/2000/svg"><path fillRule="evenodd" clip-rule="evenodd" d="M22 44.99c12.196-.267 22-10.236 22-22.495C44 10.235 34.196.266 22 0v44.99z" fill="#96298E"/><path fillRule="evenodd" clip-rule="evenodd" d="M22 0C9.805.266 0 10.235 0 22.495c0 12.259 9.804 22.228 22 22.494V0z" fill="#92278F"/><circle cx="21.5" cy="22.495" r="9.5" fill="#fff"/></svg><svg width="34" height="34" viewBox="-2 -2 34 34" id="placemark-diagnostic-normal-old" x="90" y="353" xmlns="http://www.w3.org/2000/svg"><defs><linearGradient x1="0%" y1="48.843%" x2="99.186%" y2="48.843%" id="dpa"><stop stop-color="#9B1DAA" offset="0%"/><stop stop-color="#BE3481" offset="50.371%"/><stop stop-color="#F24973" offset="100%"/></linearGradient></defs><g fill="none" fillRule="evenodd"><rect fill="url(#dpa)" width="30" height="30" rx="15"/><rect fill="#FFF" x="8.75" y="8.75" width="12.5" height="12.5" rx="6.25"/></g></svg><svg width="48" height="49" fill="none" viewBox="-2 -2 48 49" id="placemark-diagnostic-normal-scancenter" x="180" y="395" xmlns="http://www.w3.org/2000/svg"><path fillRule="evenodd" clip-rule="evenodd" d="M22 44.99c12.196-.267 22-10.236 22-22.495C44 10.235 34.196.265 22 0v44.99z" fill="#96298E"/><path fillRule="evenodd" clip-rule="evenodd" d="M22 0C9.805.266 0 10.235 0 22.494c0 12.26 9.804 22.23 22 22.495V-.001z" fill="#ED4D75"/><circle cx="21.5" cy="22.494" r="9.5" fill="#fff"/></svg><svg width="34" height="45" viewBox="-2 -2 34 45" id="placemark-lab-active" x="342" y="395" xmlns="http://www.w3.org/2000/svg"><g fill="none" fillRule="evenodd"><path d="M25.157 25.921L10.955 41l1.451-11.373C5.363 28.433 0 22.302 0 14.92 0 6.679 6.68 0 14.919 0h.162C23.321 0 30 6.68 30 14.919a14.88 14.88 0 01-4.843 11.002z" fill="#E8406C"/><rect fill="#FFF" x="8.75" y="8.697" width="12.5" height="12.424" rx="6.212"/></g></svg><svg width="34" height="34" viewBox="-2 -2 34 34" id="placemark-lab-normal" x="124" y="353" xmlns="http://www.w3.org/2000/svg"><g fill="none" fillRule="evenodd"><rect fill="#E8406C" width="30" height="30" rx="15"/><rect fill="#FFF" x="8.75" y="8.75" width="12.5" height="12.5" rx="6.25"/></g></svg><svg width="46" height="56" viewBox="-2 -2 46 56" id="quote-left-purple" x="48" y="395" xmlns="http://www.w3.org/2000/svg"><path d="M40.62 52L18.305 26.251v-.502L40.621 0 42 1.13 20.561 26 42 50.744 40.62 52zm-18.304 0L0 26.251v-.502L22.316 0l1.38 1.13L2.256 26l21.44 24.744L22.316 52z" fill="#931680" fillRule="evenodd"/></svg><svg width="14" height="24" viewBox="-2 -2 14 24" id="social-fb-white" x="507" y="196" xmlns="http://www.w3.org/2000/svg"><path d="M2.5 6.667H0v3.334h2.5v10.001h4.167v-10h3.035L10 6.666H6.667V5.278c0-.796.16-1.11.929-1.11H10V0H6.827C3.83 0 2.5 1.32 2.5 3.846v2.821z" fill="#FFF"/></svg><svg width="24" height="24" fill="none" viewBox="-2 -2 24 24" id="social-ig-white" x="238" y="353" xmlns="http://www.w3.org/2000/svg"><path fill="#fff" fillRule="evenodd" d="M10 0H6C2 0 0 2 0 6a70 70 0 000 8c0 4 2 6 6 6a44 44 0 004 0h4c4 0 6-2 6-6v-1a154 154 0 000-7c0-4-2-6-6-6h-4zm0 2h4c3 0 4 1 4 4v8c0 3-1 4-4 4a69 69 0 01-8 0c-3 0-4-1-4-4a41 41 0 010-4V6c0-3 1-4 4-4a44 44 0 014 0zm-5 8a5 5 0 1110 0 5 5 0 01-10 0zm5 3a3 3 0 110-6 3 3 0 010 6zm5-9a1 1 0 012 1 1 1 0 11-2-1z" clip-rule="evenodd"/></svg><svg width="24" height="24" fill="none" viewBox="-2 -2 14 24" id="social-tg-white" x="262" y="353" xmlns="http://www.w3.org/2000/svg"><style>.dwst0{fill:#fff}</style><path class="dwst0" d="M7.9 12.7l7.4 5.5c.9.5 1.4.3 1.7-.8l3-14.3c.3-1.3-.5-1.8-1.3-1.4L.8 8.6C-.3 9.1-.3 9.7.6 10l4.5 1.4 10.7-6.6c.5-.3.9-.1.5.1"/></svg><svg width="24" height="20" viewBox="-2 -2 24 20" id="social-tw-white" x="464.18" y="277.32" xmlns="http://www.w3.org/2000/svg"><path d="M19.688 1.894a8.065 8.065 0 01-2.32.636A4.046 4.046 0 0019.144.295a8.092 8.092 0 01-2.565.98A4.032 4.032 0 0013.631 0c-2.608 0-4.524 2.433-3.935 4.959A11.467 11.467 0 011.37.739a4.045 4.045 0 001.25 5.393 4.022 4.022 0 01-1.83-.505c-.044 1.87 1.298 3.622 3.24 4.011a4.049 4.049 0 01-1.824.07 4.042 4.042 0 003.773 2.804A8.122 8.122 0 010 14.185 11.435 11.435 0 006.192 16c7.5 0 11.737-6.334 11.48-12.015a8.224 8.224 0 002.016-2.09z" fill="#FFF"/></svg><svg width="24" height="16" viewBox="-2 -2 24 16" id="social-vk-white" x="488.18" y="277.32" xmlns="http://www.w3.org/2000/svg"><path d="M10.968 11.865c.507 0 .715-.339.709-.763-.026-1.598.595-2.458 1.716-1.337 1.24 1.24 1.496 2.1 3.002 2.1h2.667c.673 0 .938-.217.938-.557 0-.72-1.184-1.989-2.187-2.92-1.405-1.305-1.471-1.336-.261-2.907 1.5-1.95 3.464-4.447 1.727-4.447h-3.317c-.643 0-.69.362-.92.902-.828 1.957-2.404 4.49-3.003 4.103-.625-.404-.339-2.005-.291-4.385.012-.629.009-1.06-.95-1.283A6.723 6.723 0 009.29.2c-1.894 0-3.201.794-2.459.933 1.31.244 1.184 3.077.879 4.3-.532 2.132-2.53-1.686-3.363-3.588-.2-.456-.262-.811-.979-.811H.656c-.41 0-.656.133-.656.43 0 .501 2.467 5.601 4.821 8.144 2.297 2.48 4.567 2.257 6.147 2.257z" fill="#FFF"/></svg><svg width="48" height="90" fill="none" viewBox="-2 -2 48 90" id="tooth" y="395" xmlns="http://www.w3.org/2000/svg"><path d="M12.061 53.028h20.415M12.061 61.115h20.415M12.061 69.843h20.415M29.356 53.028v-6.871H15.349v6.871" stroke="#E72A6E" stroke-width="2" stroke-miterlimit="10"/><path d="M32.912 40.045H12.06v6.112h20.85v-6.111zM15.349 61.115V56.81M29.356 61.419v-4.322M29.356 70.08v-4.305M15.349 70.08v-4.305M15.349 73.507v4.305H29.12v-4.305M15.315 77.846l6.912 6.972 6.927-6.972" stroke="#E72A6E" stroke-width="2" stroke-miterlimit="10"/><path d="M12.061 40.047l-1.644-.878a8.719 8.719 0 01-4.244-5.285L3.254 22.522C2.013 18.167.067 16.073 1.174 9.118c.403-2.583 2.18-5.656 5.821-7.108 7.146-2.836 10.501-.017 15.5 4.508 2.717 2.464 5.452 1.89 11.054.844" stroke="#E72A6E" stroke-width="2" stroke-miterlimit="10"/><path d="M32.912 40.045l.889-.354a8.93 8.93 0 005.485-6.483l3.271-15.296c1.024-4.811 1.024-8.627-2.13-12.375-3.087-3.68-9.176-7.36-17.244-1.992l-2.634 1.621" stroke="#E72A6E" stroke-width="2" stroke-miterlimit="10"/></svg></svg>